0
SECTION
2
HEADER
9
$INSUNITS
70
1
9
$ACADVER
1
AC1014
9
$HANDSEED
5
FFFF
0
ENDSEC
0
SECTION
2
TABLES
0
TABLE
2
VPORT
5
8
100
AcDbSymbolTable
0
ENDTAB
0
TABLE
2
LTYPE
5
5
100
AcDbSymbolTable
0
LTYPE
5
14
100
AcDbSymbolTableRecord
100
AcDbLinetypeTableRecord
2
BYBLOCK
70
0
0
LTYPE
5
15
100
AcDbSymbolTableRecord
100
AcDbLinetypeTableRecord
2
BYLAYER
70
0
0
ENDTAB
0
TABLE
2
LAYER
5
2
100
AcDbSymbolTable
70
2
0
LAYER
5
50
100
AcDbSymbolTableRecord
100
AcDbLayerTableRecord
2
0
70
0
6
CONTINUOUS
0
ENDTAB
0
TABLE
2
STYLE
5
3
100
AcDbSymbolTable
70
1
0
STYLE
5
11
100
AcDbSymbolTableRecord
100
AcDbTextStyleTableRecord
2
STANDARD
70
0
0
ENDTAB
0
TABLE
2
VIEW
5
6
100
AcDbSymbolTable
70
0
0
ENDTAB
0
TABLE
2
UCS
5
7
100
AcDbSymbolTable
70
0
0
ENDTAB
0
TABLE
2
APPID
5
9
100
AcDbSymbolTable
70
2
0
APPID
5
12
100
AcDbSymbolTableRecord
100
AcDbRegAppTableRecord
2
ACAD
70
0
0
ENDTAB
0
TABLE
2
DIMSTYLE
5
A
100
AcDbSymbolTable
70
1
0
ENDTAB
0
TABLE
2
BLOCK_RECORD
5
1
100
AcDbSymbolTable
70
1
0
BLOCK_RECORD
5
1F
100
AcDbSymbolTableRecord
100
AcDbBlockTableRecord
2
*MODEL_SPACE
0
BLOCK_RECORD
5
1B
100
AcDbSymbolTableRecord
100
AcDbBlockTableRecord
2
*PAPER_SPACE
0
ENDTAB
0
ENDSEC
0
SECTION
2
BLOCKS
0
BLOCK
5
20
100
AcDbEntity
100
AcDbBlockBegin
2
*MODEL_SPACE
0
ENDBLK
5
21
100
AcDbEntity
100
AcDbBlockEnd
0
BLOCK
5
1C
100
AcDbEntity
100
AcDbBlockBegin
2
*PAPER_SPACE
0
ENDBLK
5
1D
100
AcDbEntity
100
AcDbBlockEnd
0
ENDSEC
0
SECTION
2
ENTITIES
0
LINE
5
100
100
AcDbEntity
8
0
100
AcDbLine
10
243.35563544131071
20
-67.662173235066348
30
0
11
232.55315722544665
21
-50.830462193417979
31
0
0
ARC
5
101
100
AcDbEntity
8
0
100
AcDbCircle
10
3.0704397904341965e-11
20
311.74999999994725
30
0
40
430.74999999984135
210
0
220
0
230
1
100
AcDbArc
50
297.43168253656921
51
302.67544615881042
0
LINE
5
102
100
AcDbEntity
8
0
100
AcDbLine
10
198.44249527403707
20
-70.566803932719637
30
0
11
207.65115690153687
21
-88.320693174834446
31
0
0
ARC
5
103
100
AcDbEntity
8
0
100
AcDbCircle
10
-3.473577433016921e-11
20
311.7500000000187
30
0
40
450.74999999996515
210
-0
220
0
230
1
100
AcDbArc
50
297.43094479945063
51
297.46014286612581
0
ARC
5
104
100
AcDbEntity
8
0
100
AcDbCircle
10
0
20
311.75
30
0
40
450.74999999993253
210
-0
220
0
230
1
100
AcDbArc
50
297.46014286612302
51
302.6761838959319
0
LWPOLYLINE
5
105
100
AcDbEntity
8
0
100
AcDbPolyline
90
4
70
1
43
0.0
10
308.91496590828342
20
-16.498543542670131
10
295.21229533609358
20
-1.9301925246650635
42
0.023009830052376889
10
322.78830657464005
20
26.525050813236209
10
337.76822259011533
20
13.273551501438543
42
-0.023006888612215726
0
LWPOLYLINE
5
106
100
AcDbEntity
8
0
100
AcDbPolyline
90
4
70
1
43
0.0
10
277.416280497831
20
-43.518588274771197
10
265.11155461989119
20
-27.751732111841278
42
0.02288422857710069
10
295.03019095569675
20
-2.1014758999246341
10
308.73286152788637
20
-16.669826917929985
42
-0.022890669920432066
0
LWPOLYLINE
5
107
100
AcDbEntity
8
0
100
AcDbPolyline
90
4
70
1
43
0.0
10
243.56603182086445
20
-67.527142262801988
10
232.7635536050004
20
-50.695431221153484
42
0.022884228578289062
10
264.91446892578557
20
-27.905541179125798
10
277.21919480372526
20
-43.672397342055824
42
-0.022890669921618628
0
LWPOLYLINE
5
108
100
AcDbEntity
8
0
100
AcDbPolyline
90
5
70
1
43
0.0
10
200.74377921665035
20
-75.546543908837648
10
204.89685135073159
20
-83.553481905429294
42
-0.019666477389365267
10
173.20250817410528
20
-98.431001098538076
10
169.70383061634129
20
-90.138880630131567
42
0.01944279617625902
10
200.41095471826381
20
-75.741305359119025
0
LWPOLYLINE
5
109
100
AcDbEntity
8
0
100
AcDbPolyline
90
4
70
1
43
0.0
10
139.9311412498065
20
-110.9400024941761
10
137.10506090414162
20
-102.39522184189413
42
0.019822616038151712
10
169.47349394592774
20
-90.23606611393835
10
172.9721715036917
20
-98.528186582344745
42
-0.019825513073648181
0
LWPOLYLINE
5
110
100
AcDbEntity
8
0
100
AcDbPolyline
90
4
70
1
43
0.0
10
105.76797392314937
20
-120.75514238814762
10
103.632501788185
20
-112.0121586139115
42
0.019822616038145752
10
136.86770589556923
20
-102.47372407056068
10
139.69378624123411
20
-111.01850472284274
42
-0.019825513073648181
0
LWPOLYLINE
5
111
100
AcDbEntity
8
0
100
AcDbPolyline
90
4
70
1
43
0.0
10
103.38964113755758
20
-112.07147728194126
10
105.52511327252191
20
-120.81446105617759
42
-0.019825513073648181
10
70.930732756610553
20
-127.81386754442208
10
69.499478489869759
20
-118.92840088590019
42
0.019822616038149259
0
LWPOLYLINE
5
112
100
AcDbEntity
8
0
100
AcDbPolyline
90
4
70
1
43
0.0
10
69.252659981504507
20
-118.96815794726619
10
70.683914248245699
20
-127.85362460578806
42
-0.019825513073648181
10
35.641440277926883
20
-132.0711917370721
10
34.923525459634867
20
-123.09987049494475
42
0.019822616038145051
0
LWPOLYLINE
5
113
100
AcDbEntity
8
0
100
AcDbPolyline
90
4
70
1
43
0.0
10
0.12499999999999999
20
-133.49998245367726
10
0.12499999999999999
20
-124.49998209169017
42
0.019822616038145051
10
34.674322101821026
20
-123.1198125724286
10
35.392236920112552
20
-132.09113381455592
42
-0.019825513073647848
0
LWPOLYLINE
5
114
100
AcDbEntity
8
0
100
AcDbPolyline
90
4
70
1
43
0.0
10
-0.12499999999999999
20
-124.49998209169017
10
-0.1249999999996793
20
-133.49998245367732
42
-0.019825513073644625
10
-35.39223692011317
20
-132.09113381455589
10
-34.674322101821097
20
-123.1198125724286
42
0.019822616038145051
0
LWPOLYLINE
5
115
100
AcDbEntity
8
0
100
AcDbPolyline
90
4
70
1
43
0.0
10
-70.683914248245515
20
-127.85362460578803
10
-69.252659981504507
20
-118.96815794726619
42
0.019822616038143299
10
-34.923525459634732
20
-123.0998704949448
10
-35.641440277926449
20
-132.07119173707207
42
-0.019825513073647848
0
LWPOLYLINE
5
116
100
AcDbEntity
8
0
100
AcDbPolyline
90
4
70
1
43
0.0
10
-105.52511327252196
20
-120.81446105617748
10
-103.38964113755758
20
-112.07147728194136
42
0.019822616038145401
10
-69.499478489869546
20
-118.92840088590023
10
-70.930732756612286
20
-127.8138675444217
42
-0.019825513073647848
0
LWPOLYLINE
5
117
100
AcDbEntity
8
0
100
AcDbPolyline
90
4
70
1
43
0.0
10
-103.63250178818497
20
-112.0121586139114
10
-105.76797392315044
20
-120.75514238814749
42
-0.019825513073649957
10
-139.69378624123416
20
-111.01850472284274
10
-136.86770589556929
20
-102.47372407056049
42
0.019822616038145051
0
LWPOLYLINE
5
118
100
AcDbEntity
8
0
100
AcDbPolyline
90
4
70
1
43
0.0
10
-137.1050609041416
20
-102.39522184189404
10
-139.9311412498065
20
-110.94000249417628
42
-0.019825513073650623
10
-172.97217150369167
20
-98.528186582344873
10
-169.47349394592788
20
-90.236066113938307
42
0.019822616038145051
0
LWPOLYLINE
5
119
100
AcDbEntity
8
0
100
AcDbPolyline
90
5
70
1
43
0.0
10
-204.8968513507312
20
-83.553481905429521
10
-200.74377921665035
20
-75.546543908837648
10
-200.41095471826389
20
-75.741305359118996
42
0.019442796176258662
10
-169.70383061634135
20
-90.138880630131567
10
-173.2025081741063
20
-98.431001098537621
42
-0.019666477389361045
0
LINE
5
120
100
AcDbEntity
8
0
100
AcDbLine
10
-232.55315722544665
20
-50.830462193417979
30
0
11
-243.35563544131071
21
-67.662173235066348
31
0
0
ARC
5
121
100
AcDbEntity
8
0
100
AcDbCircle
10
1.7992956206334505e-11
20
311.75000000003183
30
0
40
450.75000000003666
210
0
220
0
230
1
100
AcDbArc
50
237.32381610406838
51
242.53985713388323
0
ARC
5
122
100
AcDbEntity
8
0
100
AcDbCircle
10
-1.1624286695065867e-07
20
311.74999977609519
30
0
40
450.74999974771919
210
0
220
0
230
1
100
AcDbArc
50
242.53985713387021
51
242.56905520055253
0
LINE
5
123
100
AcDbEntity
8
0
100
AcDbLine
10
-207.65115690155673
20
-88.320693174824143
30
0
11
-198.44249527403724
21
-70.566803932719637
31
0
0
ARC
5
124
100
AcDbEntity
8
0
100
AcDbCircle
10
1.7992956206334505e-11
20
311.75000000003183
30
0
40
430.74999999993889
210
0
220
0
230
1
100
AcDbArc
50
237.32455384119021
51
242.56831746343019
0
LWPOLYLINE
5
125
100
AcDbEntity
8
0
100
AcDbPolyline
90
4
70
1
43
0.0
10
-265.11155461989114
20
-27.751732111841186
10
-277.41628049783134
20
-43.518588274770991
42
-0.022890669920432066
10
-308.7328615278866
20
-16.669826917929701
10
-295.03019095569681
20
-2.1014758999245449
42
0.02288422857710069
0
LWPOLYLINE
5
126
100
AcDbEntity
8
0
100
AcDbPolyline
90
4
70
1
43
0.0
10
-295.21229533609358
20
-1.9301925246650635
10
-308.91496590828444
20
-16.498543542669154
42
-0.023006888612215171
10
-337.76822259011561
20
13.273551501438906
10
-322.78830657464016
20
26.525050813236209
42
0.023009830052376889
0
LWPOLYLINE
5
127
100
AcDbEntity
8
0
100
AcDbPolyline
90
5
70
1
43
0.0
10
-241.89935923614874
20
63.375365143080423
10
-260.80464929469736
20
46.649377394523889
42
-0.055862238943308412
10
-272.83290504028912
20
57.592053157799235
10
-279.34928495106141
20
64.957472581768442
10
-259.12748048975811
20
82.84821388359434
0
LWPOLYLINE
5
128
100
AcDbEntity
8
0
100
AcDbPolyline
90
4
70
1
43
0.0
10
-213.29791784597035
20
52.991673141187192
10
-211.47659395176618
20
33.074773292185661
42
-0.18004214778999245
10
-260.59679478511646
20
46.499473425940295
10
-245.08296728495935
20
60.224948565292301
42
0.15758078541213519
0
LWPOLYLINE
5
129
100
AcDbEntity
8
0
100
AcDbPolyline
90
6
70
1
43
0.0
10
-211.22763272874431
20
33.097539702347206
10
-213.04895661828755
20
53.014439500370734
42
0.16278821346744612
10
-182.30016034136861
20
66.609612740884785
10
-181.53754858595934
20
67.301385611682349
10
-168.13580626411309
20
52.455127900025268
10
-168.96747162021924
20
51.70110889053251
42
-0.1622942708762985
0
LWPOLYLINE
5
130
100
AcDbEntity
8
0
100
AcDbPolyline
90
6
70
1
43
0.0
10
-142.44355885333582
20
97.565307171368886
10
-131.72381773335931
20
80.680780483670219
42
0.044256332870561722
10
-166.14034313168042
20
54.264289630220297
10
-167.95059480921907
20
52.623047552732423
10
-181.3523805772887
20
67.469353393491886
10
-179.48444650279765
20
69.163775369032706
42
-0.04402611867631212
0
LWPOLYLINE
5
131
100
AcDbEntity
8
0
100
AcDbPolyline
90
4
70
1
43
0.0
10
-97.907515420807172
20
120.29284191176511
10
-90.542671276258631
20
101.69824156990693
42
0.046919569336443694
10
-131.51276117380951
20
80.814777232403188
10
-142.23250229378564
20
97.699303920102082
42
-0.046938779748633509
0
LWPOLYLINE
5
132
100
AcDbEntity
8
0
100
AcDbPolyline
90
4
70
1
43
0.0
10
-49.900728308286666
20
134.26955079236836
10
-46.151859016170249
20
114.62404061376648
42
0.046919569336441459
10
-90.310238798467267
20
101.790302111225
10
-97.675082943016136
20
120.38490245308314
42
-0.046938779748632399
0
LWPOLYLINE
5
133
100
AcDbEntity
8
0
100
AcDbPolyline
90
4
70
1
43
0.0
10
-45.906290166916278
20
114.67090147457888
10
-49.655159459032731
20
134.31641165318075
42
-0.046938779748631171
10
-0.12499999999999999
20
138.99997058131174
10
-0.12500000000014366
20
118.99996830263879
42
0.046919569336440411
0
LWPOLYLINE
5
134
100
AcDbEntity
8
0
100
AcDbPolyline
90
4
70
1
43
0.0
10
49.655159459032703
20
134.31641165318081
10
45.906290166916278
20
114.67090147457887
42
0.046919569336442056
10
0.12499999999999999
20
118.99996830263875
10
0.1250000000000038
20
138.99997058131177
42
-0.04693877974863251
0
LWPOLYLINE
5
135
100
AcDbEntity
8
0
100
AcDbPolyline
90
4
70
1
43
0.0
10
46.151859016170242
20
114.62404061376645
10
49.900728308286766
20
134.26955079236839
42
-0.046938779748632399
10
97.675082943015823
20
120.3849024530832
10
90.310238798467338
20
101.79030211122497
42
0.0469195693364425
0
LWPOLYLINE
5
136
100
AcDbEntity
8
0
100
AcDbPolyline
90
4
70
1
43
0.0
10
90.542671276258631
20
101.69824156990693
10
97.90751542080713
20
120.29284191176521
42
-0.04693877974863251
10
142.23250229378601
20
97.699303920101869
10
131.51276117380959
20
80.814777232403188
42
0.046919569336442056
0
LWPOLYLINE
5
137
100
AcDbEntity
8
0
100
AcDbPolyline
90
6
70
1
43
0.0
10
131.72381773335931
20
80.680780483670205
10
142.4435588533359
20
97.565307171368872
42
-0.044026118676311787
10
179.48444650279748
20
69.163775369032876
10
181.3523805772887
20
67.469353393491886
10
167.95059480921907
20
52.623047552732423
10
166.14034313168045
20
54.264289630220276
42
0.044256332870561882
0
LWPOLYLINE
5
138
100
AcDbEntity
8
0
100
AcDbPolyline
90
6
70
1
43
0.0
10
213.04895661828755
20
53.014439500370749
10
211.22763272874431
20
33.097539702347184
42
-0.16229427087629905
10
168.96747162021924
20
51.701108890532474
10
168.13580626411309
20
52.455127900025268
10
181.53754858595934
20
67.301385611682349
10
182.30016034136864
20
66.609612740884771
42
0.16278821346744632
0
LWPOLYLINE
5
139
100
AcDbEntity
8
0
100
AcDbPolyline
90
4
70
1
43
0.0
10
211.47659395176618
20
33.074773292185633
10
213.29791784597035
20
52.991673141187185
42
0.15758078541213497
10
245.08296728495935
20
60.224948565292301
10
260.59679478511646
20
46.49947342594028
42
-0.18004214778999256
0
LWPOLYLINE
5
140
100
AcDbEntity
8
0
100
AcDbPolyline
90
5
70
1
43
0.0
10
260.80464929469736
20
46.649377394523874
10
241.89935923614874
20
63.375365143080423
10
259.12748048975811
20
82.84821388359434
10
279.34928495106141
20
64.957472581768442
10
272.83290504028912
20
57.592053157799178
42
-0.055862238943309078
0
ELLIPSE
5
141
100
AcDbEntity
8
0
100
AcDbEllipse
10
0
20
0
30
0
11
-50.999999999999993
21
7.3478807948841168e-16
31
0.0
40
0.76470588235294112
41
3.1447977872825779
42
4.709937997538562
0
LINE
5
142
100
AcDbEntity
8
0
100
AcDbLine
10
0.12499999999999713
20
38.99988285737885
30
0
11
0.1249999999999982
21
26.999861316211877
31
0
0
ELLIPSE
5
143
100
AcDbEntity
8
0
100
AcDbEllipse
10
0
20
0
30
0
11
-38.999999999999993
21
-3.4494218175983769e-15
31
0.0
40
0.6923076923076924
41
3.1462222997577531
42
4.7091838466919045
0
LINE
5
144
100
AcDbEntity
8
0
100
AcDbLine
10
38.999582045085525
20
0.12499999999999027
30
0
11
50.999738041733529
21
0.12499999999998557
31
0
0
ELLIPSE
5
145
100
AcDbEntity
8
0
100
AcDbEllipse
10
0
20
0
30
0
11
50.999999999999993
21
7.3478807948841168e-16
31
0.0
40
0.76470588235294112
41
1.5732473096410242
42
3.1383875198970088
0
LINE
5
146
100
AcDbEntity
8
0
100
AcDbLine
10
-50.999738041733529
20
0.12499999999996048
30
0
11
-38.999582045085525
21
0.12499999999999997
31
0
0
ELLIPSE
5
147
100
AcDbEntity
8
0
100
AcDbEllipse
10
0
20
0
30
0
11
38.999999999999993
21
-3.4494218175983769e-15
31
0.0
40
0.6923076923076924
41
1.5740014604876822
42
3.1369630074218326
0
LINE
5
148
100
AcDbEntity
8
0
100
AcDbLine
10
-0.12500000000000364
20
26.999861316211877
30
0
11
-0.12499999999998462
21
38.99988285737885
31
0
0
ELLIPSE
5
149
100
AcDbEntity
8
0
100
AcDbEllipse
10
0
20
0
30
0
11
50.999999999999993
21
7.3478807948841168e-16
31
0.0
40
0.76470588235294112
41
3.1447977872825779
42
4.709937997538562
0
LINE
5
150
100
AcDbEntity
8
0
100
AcDbLine
10
-0.12499999999999599
20
-38.99988285737885
30
0
11
-0.12499999999999997
21
-26.999861316211877
31
0
0
ELLIPSE
5
151
100
AcDbEntity
8
0
100
AcDbEllipse
10
0
20
0
30
0
11
38.999999999999993
21
-3.4494218175983769e-15
31
0.0
40
0.6923076923076924
41
3.1462222997577536
42
4.7091838466919045
0
LINE
5
152
100
AcDbEntity
8
0
100
AcDbLine
10
-38.999582045085525
20
-0.12499999999999536
30
0
11
-50.999738041733529
21
-0.12499999999998705
31
0
0
ELLIPSE
5
153
100
AcDbEntity
8
0
100
AcDbEllipse
10
0
20
0
30
0
11
-50.999999999999993
21
7.3478807948841168e-16
31
0.0
40
0.76470588235294112
41
1.5732473096410244
42
3.1383875198970079
0
LINE
5
154
100
AcDbEntity
8
0
100
AcDbLine
10
50.999738041733529
20
-0.1249999999999966
30
0
11
38.999582045085525
21
-0.1249999999999982
31
0
0
ELLIPSE
5
155
100
AcDbEntity
8
0
100
AcDbEllipse
10
0
20
0
30
0
11
-38.999999999999993
21
-3.4494218175983769e-15
31
0.0
40
0.6923076923076924
41
1.5740014604876817
42
3.1369630074218322
0
LINE
5
156
100
AcDbEntity
8
0
100
AcDbLine
10
0.12499999999999109
20
-26.999861316211877
30
0
11
0.12499999999999481
21
-38.99988285737885
31
0
0
LWPOLYLINE
5
157
100
AcDbEntity
8
0
100
AcDbPolyline
90
4
70
1
43
0.0
10
-136.79105197655528
20
-101.44580176854086
10
-140.24515017681998
20
-111.88942256579625
42
-0.019825827753216625
10
-173.360913454204
20
-99.44953330022642
10
-169.08475199470598
20
-89.314719394375047
42
0.019822286749748164
0
LWPOLYLINE
5
158
100
AcDbEntity
8
0
100
AcDbPolyline
90
4
70
1
43
0.0
10
-103.39522710630298
20
-111.04071597143184
10
-106.00524860459755
20
-121.72658502885416
42
-0.019825827753213513
10
-140.00779516824727
20
-111.96792479446287
10
-136.55369696798303
20
-101.52430399720758
42
0.019822286749747113
0
LWPOLYLINE
5
159
100
AcDbEntity
8
0
100
AcDbPolyline
90
4
70
1
43
0.0
10
-105.76238795397083
20
-121.78590369688393
10
-103.15236645567558
20
-111.1000346394617
42
0.019822286749747113
10
-69.340450237862456
20
-117.94112681181871
10
-71.089761008327642
20
-128.80114161670133
42
-0.019825827753211404
0
LWPOLYLINE
5
160
100
AcDbEntity
8
0
100
AcDbPolyline
90
4
70
1
43
0.0
10
-70.842942499962319
20
-128.84089867806745
10
-69.093631729497417
20
-117.98088387318465
42
0.019822286749746412
10
-34.843757146417438
20
-122.10305702267604
10
-35.721208590999176
20
-133.06800520752114
42
-0.019825827753214516
0
LWPOLYLINE
5
161
100
AcDbEntity
8
0
100
AcDbPolyline
90
4
70
1
43
0.0
10
-0.12499999999999999
20
-123.49998205054523
10
-0.12500000000041223
20
-134.49998249299705
42
-0.019825827753216625
10
-35.472005233184866
20
-133.08794728500507
10
-34.594553788603811
20
-122.12299910015993
42
0.019822286749747463
0
LWPOLYLINE
5
162
100
AcDbEntity
8
0
100
AcDbPolyline
90
4
70
1
43
0.0
10
0.12499999999999999
20
-134.49998249299691
10
0.12499999999999999
20
-123.49998205054523
42
0.01982228674974466
10
34.594553788603726
20
-122.12299910015984
10
35.472005233185051
20
-133.08794728500513
42
-0.019825827753216958
0
LWPOLYLINE
5
163
100
AcDbEntity
8
0
100
AcDbPolyline
90
4
70
1
43
0.0
10
69.093631729497417
20
-117.98088387318465
10
70.842942499961936
20
-128.84089867806745
42
-0.019825827753216625
10
35.721208590998579
20
-133.06800520752128
10
34.843757146417602
20
-122.10305702267604
42
0.019822286749742204
0
LWPOLYLINE
5
164
100
AcDbEntity
8
0
100
AcDbPolyline
90
4
70
1
43
0.0
10
103.15236645567558
20
-111.1000346394617
10
105.76238795397043
20
-121.78590369688411
42
-0.019825827753216625
10
71.089761008327372
20
-128.8011416167015
10
69.340450237862683
20
-117.94112681181865
42
0.019822286749749916
0
LWPOLYLINE
5
165
100
AcDbEntity
8
0
100
AcDbPolyline
90
4
70
1
43
0.0
10
106.00524860459824
20
-121.72658502885407
10
103.395227106303
20
-111.04071597143198
42
0.019822286749747113
10
136.55369696798294
20
-101.5243039972074
10
140.00779516824744
20
-111.96792479446296
42
-0.019825827753216958
0
LWPOLYLINE
5
166
100
AcDbEntity
8
0
100
AcDbPolyline
90
4
70
1
43
0.0
10
140.24515017681966
20
-111.88942256579637
10
136.79105197655534
20
-101.44580176854103
42
0.019822286749743605
10
169.08475199470581
20
-89.314719394375047
10
173.36091345420374
20
-99.449533300226534
42
-0.019825827753216625
0
LINE
5
167
100
AcDbEntity
8
0
100
AcDbLine
10
205.35728443168296
20
-84.441176366719375
30
6.9935308637805131e-16
11
200.29427926035441
21
-74.679928024659773
31
6.9935308637805131e-16
0
ARC
5
168
100
AcDbEntity
8
0
100
AcDbCircle
10
-860.91710411866484
20
2019.488226142015
30
6.9935308637805131e-16
40
2347.7031026386344
210
-0
220
0
230
1
100
AcDbArc
50
296.86278659556035
51
296.87343096829107
0
ARC
5
169
100
AcDbEntity
8
0
100
AcDbCircle
10
-7.9356993417490244e-11
20
311.75000000016627
30
6.9935308637805131e-16
40
435.25000000018406
210
0
220
0
230
1
100
AcDbArc
50
292.89269641016188
51
297.34118865374518
0
LINE
5
170
100
AcDbEntity
8
0
100
AcDbLine
10
169.31508866511965
20
-89.21753391056825
30
6.9935308637805131e-16
11
173.5912501246176
21
-99.352347816419623
31
6.9935308637805131e-16
0
ARC
5
171
100
AcDbEntity
8
0
100
AcDbCircle
10
0
20
311.74999999999994
30
6.9935308637805131e-16
40
446.25
210
-0
220
0
230
1
100
AcDbArc
50
292.89229080045448
51
297.39900654845394
0
ENDSEC
0
SECTION
2
OBJECTS
0
DICTIONARY
5
C
100
AcDbDictionary
3
ACAD_GROUP
350
D
3
ACAD_MLINESTYLE
350
17
0
DICTIONARY
5
D
100
AcDbDictionary
0
DICTIONARY
5
1A
330
C
100
AcDbDictionary
0
DICTIONARY
5
17
100
AcDbDictionary
0
ENDSEC
0
EOF
