0
SECTION
2
HEADER
9
$INSUNITS
70
1
9
$ACADVER
1
AC1014
9
$HANDSEED
5
FFFF
0
ENDSEC
0
SECTION
2
TABLES
0
TABLE
2
VPORT
5
8
100
AcDbSymbolTable
0
ENDTAB
0
TABLE
2
LTYPE
5
5
100
AcDbSymbolTable
0
LTYPE
5
14
100
AcDbSymbolTableRecord
100
AcDbLinetypeTableRecord
2
BYBLOCK
70
0
0
LTYPE
5
15
100
AcDbSymbolTableRecord
100
AcDbLinetypeTableRecord
2
BYLAYER
70
0
0
ENDTAB
0
TABLE
2
LAYER
5
2
100
AcDbSymbolTable
70
2
0
LAYER
5
50
100
AcDbSymbolTableRecord
100
AcDbLayerTableRecord
2
0
70
0
6
CONTINUOUS
0
ENDTAB
0
TABLE
2
STYLE
5
3
100
AcDbSymbolTable
70
1
0
STYLE
5
11
100
AcDbSymbolTableRecord
100
AcDbTextStyleTableRecord
2
STANDARD
70
0
0
ENDTAB
0
TABLE
2
VIEW
5
6
100
AcDbSymbolTable
70
0
0
ENDTAB
0
TABLE
2
UCS
5
7
100
AcDbSymbolTable
70
0
0
ENDTAB
0
TABLE
2
APPID
5
9
100
AcDbSymbolTable
70
2
0
APPID
5
12
100
AcDbSymbolTableRecord
100
AcDbRegAppTableRecord
2
ACAD
70
0
0
ENDTAB
0
TABLE
2
DIMSTYLE
5
A
100
AcDbSymbolTable
70
1
0
ENDTAB
0
TABLE
2
BLOCK_RECORD
5
1
100
AcDbSymbolTable
70
1
0
BLOCK_RECORD
5
1F
100
AcDbSymbolTableRecord
100
AcDbBlockTableRecord
2
*MODEL_SPACE
0
BLOCK_RECORD
5
1B
100
AcDbSymbolTableRecord
100
AcDbBlockTableRecord
2
*PAPER_SPACE
0
ENDTAB
0
ENDSEC
0
SECTION
2
BLOCKS
0
BLOCK
5
20
100
AcDbEntity
100
AcDbBlockBegin
2
*MODEL_SPACE
0
ENDBLK
5
21
100
AcDbEntity
100
AcDbBlockEnd
0
BLOCK
5
1C
100
AcDbEntity
100
AcDbBlockBegin
2
*PAPER_SPACE
0
ENDBLK
5
1D
100
AcDbEntity
100
AcDbBlockEnd
0
ENDSEC
0
SECTION
2
ENTITIES
0
LINE
5
100
100
AcDbEntity
8
0
100
AcDbLine
10
-360.81297751237776
20
248.5942972392094
30
0
11
-358.89983976877028
21
268.50258684733262
31
0
0
ELLIPSE
5
101
100
AcDbEntity
8
0
100
AcDbEllipse
10
-384.17828936639103
20
4.1459311864805724
30
0
11
-21.396565981033483
21
264.69912801229452
31
0.0
40
0.99999999999999489
41
6.1071944813820256
42
6.2831853071795889
0
LINE
5
102
100
AcDbEntity
8
0
100
AcDbLine
10
-405.57485534742523
20
268.845059198775
30
0
11
-408.08967073942318
21
268.65546204160205
31
0
0
LINE
5
103
100
AcDbEntity
8
0
100
AcDbLine
10
-408.08967073942318
20
268.65546204160205
30
0
11
-406.63440083559647
21
248.70795973184869
31
0
0
LINE
5
104
100
AcDbEntity
8
0
100
AcDbLine
10
-406.63440083559647
20
248.70795973184869
30
0
11
-404.19776932932496
21
248.8910269205891
31
0
0
ELLIPSE
5
105
100
AcDbEntity
8
0
100
AcDbEllipse
10
-384.17828936639103
20
4.1459311864805724
30
0
11
-20.019479962933932
21
244.7450957341085
31
0.0
40
0.99999999999999512
41
6.1062754153612318
42
6.2831853071795862
0
LWPOLYLINE
5
106
100
AcDbEntity
8
0
100
AcDbPolyline
90
4
70
1
43
0.0
10
-408.29594325848348
20
219.93500355439372
10
-410.07130942551674
20
239.85605187319189
42
-0.046938779748632621
10
-360.32092849958514
20
239.58769018577158
10
-362.31109988303342
20
219.68695379207401
42
0.046919569336442056
0
LINE
5
107
100
AcDbEntity
8
0
100
AcDbLine
10
-408.74235108192579
20
213.8816669219907
30
0
11
-406.96824491197702
21
193.96050635226769
31
0
0
ELLIPSE
5
108
100
AcDbEntity
8
0
100
AcDbEllipse
10
-385.31006012695627
20
-50.64502199021333
30
0
11
21.727621322297438
21
244.59937026812059
31
0.0
40
0.99999999999998657
41
6.2172489379008766e-15
42
0.17690989181835429
0
LINE
5
109
100
AcDbEntity
8
0
100
AcDbLine
10
-363.5824388046604
20
193.9543482779074
30
0
11
-361.14714471707504
21
193.75427479158958
31
0
0
LINE
5
110
100
AcDbEntity
8
0
100
AcDbLine
10
-361.14714471707504
20
193.75427479158958
30
0
11
-359.55265157123074
21
213.69113137678048
31
0
0
LINE
5
111
100
AcDbEntity
8
0
100
AcDbLine
10
-359.55265157123074
20
213.69113137678048
30
0
11
-362.06608205184631
21
213.89828049445745
31
0
0
ELLIPSE
5
112
100
AcDbEntity
8
0
100
AcDbEllipse
10
-385.31006012695627
20
-50.64502199021333
30
0
11
23.243978075110029
21
264.54330248467079
31
0.0
40
0.99999999999998668
41
0
42
0.17599082579756048
0
LINE
5
113
100
AcDbEntity
8
0
100
AcDbLine
10
-365.9789490067015
20
168.29177048825119
30
0
11
-365.0395839687593
21
188.26969894740967
31
0
0
ELLIPSE
5
114
100
AcDbEntity
8
0
100
AcDbEllipse
10
-386.08565979750705
20
-261.98869929987404
30
0
11
-19.974694559996625
21
450.30719967288331
31
0.0
40
0.99999999999999201
41
6.1921482172901952
42
6.2831853071795907
0
ELLIPSE
5
115
100
AcDbEntity
8
0
100
AcDbEllipse
10
-386.08565979752774
20
-261.98869929990758
30
0
11
-20.204169585435647
21
450.29696204985726
31
0.0
40
0.99999999999999167
41
6.2826757047810018
42
6.2831853071795907
0
LINE
5
116
100
AcDbEntity
8
0
100
AcDbLine
10
-406.28982938296542
20
188.30826274994956
30
0
11
-405.38781966617574
21
168.32861283655322
31
0
0
ELLIPSE
5
117
100
AcDbEntity
8
0
100
AcDbEllipse
10
-386.08565979750705
20
-261.98869929987404
30
0
11
20.106710790805611
21
430.28046978812512
31
0.0
40
0.99999999999999256
41
1.1102230246251563e-16
42
0.091520940404400328
0
LINE
5
118
100
AcDbEntity
8
0
100
AcDbLine
10
-366.22186551358311
20
151.90047615339856
30
0
11
-365.87653112227662
21
160.89384875070311
31
0
0
ELLIPSE
5
119
100
AcDbEntity
8
0
100
AcDbEllipse
10
-382.83608156183737
20
-284.03303979267093
30
0
11
-444.92688854337899
21
16.959550439560147
31
0.0
40
0.99999999999998912
41
4.7123889803846897
42
4.791680645212697
0
LINE
5
120
100
AcDbEntity
8
0
100
AcDbLine
10
-401.17185481236254
20
160.83925864734817
30
0
11
-400.79870263918684
21
151.84699730931845
31
0
0
ELLIPSE
5
121
100
AcDbEntity
8
0
100
AcDbEllipse
10
-382.83608156183737
20
-284.03303979267093
30
0
11
435.88003710199411
21
17.962621077349723
31
0.0
40
0.99999999999998912
41
1.4915162455566255
42
1.5707963267948966
0
LWPOLYLINE
5
122
100
AcDbEntity
8
0
100
AcDbPolyline
90
4
70
1
43
0.0
10
-364.97304231176372
20
144.65451394266091
10
-365.3951176789169
20
133.66261410148789
42
0.019822286749751668
10
-399.89212296394845
20
133.60925873066074
10
-400.34819784227886
20
144.59980036605307
42
-0.019825827753218402
0
LINE
5
123
100
AcDbEntity
8
0
100
AcDbLine
10
-400.5655552104725
20
120.98033291508594
30
0
11
-400.10219600463114
21
109.99391908678757
31
0
0
ELLIPSE
5
124
100
AcDbEntity
8
0
100
AcDbEllipse
10
-323.35176066293872
20
-2236.4542965817441
30
0
11
-2346.4624338219132
21
-76.314512393133043
31
0.0
40
0.99999999999999234
41
4.7123889803846968
42
4.7125747597356504
0
ELLIPSE
5
125
100
AcDbEntity
8
0
100
AcDbEllipse
10
-381.88627547844362
20
-324.87855396359504
30
0
11
434.88669120374959
21
17.779997577640763
31
0.0
40
0.99999999999999256
41
1.4931554903949122
42
1.5707963267949345
0
LINE
5
126
100
AcDbEntity
8
0
100
AcDbLine
10
-365.88165660270568
20
110.07709282656421
30
0
11
-365.47401759611535
21
121.06953751254021
31
0
0
ELLIPSE
5
127
100
AcDbEntity
8
0
100
AcDbEllipse
10
-381.88627547844362
20
-324.87855396359504
30
0
11
-445.94809147613904
21
16.412257882330948
31
0.0
40
0.99999999999999178
41
4.7123889803846897
42
4.7910460086387587
0
LWPOLYLINE
5
128
100
AcDbEntity
8
0
100
AcDbPolyline
90
5
70
1
43
0.0
10
-401.94224958517611
20
88.060172253696351
10
-402.32233298243221
20
97.072086636516289
42
-0.019666477389364601
10
-367.30999165603998
20
97.161089912698884
10
-367.64351447961087
20
88.167271533282559
42
0.019442796176261521
10
-401.55829840499979
20
88.096028361728074
0
LINE
5
129
100
AcDbEntity
8
0
100
AcDbLine
10
-406.05517862303333
20
72.205651436356717
30
0
11
-405.11581358509432
21
52.227722977198034
31
0
0
ARC
5
130
100
AcDbEntity
8
0
100
AcDbCircle
10
-385.00910279435584
20
-378.05274681085058
30
0
40
430.74999999982128
210
0
220
-0
230
1
100
AcDbArc
50
87.431682536560317
51
92.67544615880179
0
LINE
5
131
100
AcDbEntity
8
0
100
AcDbLine
10
-365.7069429256195
20
52.264565325493486
30
0
11
-364.8049332088288
21
72.244215238889979
31
0
0
ARC
5
132
100
AcDbEntity
8
0
100
AcDbCircle
10
-385.00910279433555
20
-378.05274681096506
30
0
40
450.74999999996504
210
0
220
-0
230
1
100
AcDbArc
50
87.430944799441747
51
87.460142866116982
0
ARC
5
133
100
AcDbEntity
8
0
100
AcDbCircle
10
-385.00910279435624
20
-378.05274681093147
30
0
40
450.74999999993247
210
0
220
-0
230
1
100
AcDbArc
50
87.460142866114182
51
92.676183895923046
0
LWPOLYLINE
5
134
100
AcDbEntity
8
0
100
AcDbPolyline
90
4
70
1
43
0.0
10
-366.14796751407107
20
43.948386271665129
10
-367.20546135645958
20
23.97636236403179
42
0.022884228577100083
10
-406.61342501004083
20
24.246259768918243
10
-407.39726354264366
20
44.230894600422594
42
-0.022890669920432066
0
LINE
5
135
100
AcDbEntity
8
0
100
AcDbLine
10
-366.79462192266737
20
-17.739830816996676
30
0
11
-365.83370202072609
21
2.2370724749508697
31
0
0
ELLIPSE
5
136
100
AcDbEntity
8
0
100
AcDbEllipse
10
-387.36557696591842
20
-447.99835578602796
30
0
11
21.531874945192406
21
450.23542826097889
31
0.0
40
0.999999999999994
41
2.2204460492503136e-16
42
0.092011322356370231
0
LINE
5
137
100
AcDbEntity
8
0
100
AcDbLine
10
-407.29311119445606
20
2.3109333470887496
30
0
11
-406.41951801466877
21
-17.669981366644958
31
0
0
ELLIPSE
5
138
100
AcDbEntity
8
0
100
AcDbEllipse
10
-387.36557696591842
20
-447.99835578602796
30
0
11
-19.053941048750271
21
430.32837441938312
31
0.0
40
0.99999999999999423
41
6.19116222528789
42
6.2831853071795862
0
LWPOLYLINE
5
139
100
AcDbEntity
8
0
100
AcDbPolyline
90
6
70
1
43
0.0
10
-397.53931447429505
20
-35.29325430688364
10
-397.61783548143842
20
-55.293103124476389
42
-0.1622942708763003
10
-441.33859180860742
20
-40.443541863672479
10
-442.23280951376495
20
-39.764876535984314
10
-430.17600148543272
20
-23.807074510954923
10
-429.35599971962472
20
-24.429748983156308
42
0.16278821346746422
0
LINE
5
140
100
AcDbEntity
8
0
100
AcDbLine
10
-380.43971516650828
20
-35.174083918731917
30
0
11
-380.5182361738519
21
-55.173932787515632
31
0
0
ELLIPSE
5
141
100
AcDbEntity
8
0
100
AcDbEllipse
10
-380.35667360827244
20
17.825888428277359
30
0
11
-0.16156256557942308
21
-72.999821215792991
31
0.0
40
0.99999999999996692
41
8.8817841970012504e-16
42
0.71253505195713263
0
LINE
5
142
100
AcDbEntity
8
0
100
AcDbLine
10
-332.75499224578869
20
-37.519210103252405
30
0
11
-349.40603892888964
21
-25.198083699274637
31
0
0
ELLIPSE
5
143
100
AcDbEntity
8
0
100
AcDbEllipse
10
-380.35667360821782
20
17.825888428353586
30
0
11
30.950634679328171
21
-43.02397212762822
31
0.0
40
0.99999999999999156
41
5.6580031175705843
42
6.2831853071795871
0
ELLIPSE
5
144
100
AcDbEntity
8
0
100
AcDbEllipse
10
-301.2703272544199
20
48.702843949101521
30
0
11
-51.000000000000014
21
-3.6652666436898735e-14
31
0.0
40
0.76470588235294079
41
1.5732473096410267
42
3.1383875198970097
0
LINE
5
145
100
AcDbEntity
8
0
100
AcDbLine
10
-250.27058921268633
20
48.577843949101634
30
0
11
-262.27074520933439
21
48.577843949101556
31
0
0
ELLIPSE
5
146
100
AcDbEntity
8
0
100
AcDbEllipse
10
-301.2703272544199
20
48.702843949101521
30
0
11
-39.000000000000007
21
-3.2039828212482671e-14
31
0.0
40
0.69230769230769207
41
1.5740014604876851
42
3.1369630074218322
0
LINE
5
147
100
AcDbEntity
8
0
100
AcDbLine
10
-301.14532725441978
20
21.702982632889647
30
0
11
-301.14532725441984
21
9.7029610917226723
31
0
0
LINE
5
148
100
AcDbEntity
8
0
100
AcDbLine
10
-274.39900865174229
20
-55.246125309249472
30
0
11
-274.47752965908592
21
-35.246276440466382
31
0
0
ARC
5
149
100
AcDbEntity
8
0
100
AcDbCircle
10
-274.56057121737643
20
17.753695906617416
30
0
40
53.000037402741633
210
0
220
0
230
1
100
AcDbArc
50
234.26947136154888
51
270.08977225289129
0
LINE
5
150
100
AcDbEntity
8
0
100
AcDbLine
10
-305.51120589670359
20
-25.270276221009794
30
0
11
-322.16225257980511
21
-37.591402624986621
31
0
0
ELLIPSE
5
151
100
AcDbEntity
8
0
100
AcDbEllipse
10
-274.56057121732186
20
17.753695906541214
30
0
11
0.16156256557949306
21
-72.999821215790675
31
0.0
40
0.99999999999998634
41
5.5706502552224526
42
6.283185307179588
0
LWPOLYLINE
5
152
100
AcDbEntity
8
0
100
AcDbPolyline
90
6
70
1
43
0.0
10
-260.95788805660311
20
-55.705873436686737
10
-261.03640906374648
20
-35.706024619094237
42
0.16278821346744707
10
-229.21972381841681
20
-24.842519295366767
10
-228.39972205260867
20
-24.219844823165332
10
-216.34291402427644
20
-40.177646848194769
10
-217.23713172943383
20
-40.856312175882707
42
-0.16229427087631787
0
LWPOLYLINE
5
153
100
AcDbEntity
8
0
100
AcDbPolyline
90
5
70
1
43
0.0
10
-380.11502356436955
20
-69.856201803211391
10
-379.8947466104409
20
-95.097440608513438
10
-405.89375661010939
20
-95.324330531470849
10
-406.12937306856497
20
-68.325358608737417
10
-396.29549049521592
20
-68.239545055025019
42
-0.05586223894332356
0
LWPOLYLINE
5
154
100
AcDbEntity
8
0
100
AcDbPolyline
90
5
70
1
43
0.0
10
-368.51009230528285
20
-97.306735087487439
10
-368.28981535135415
20
-72.065496282185521
42
-0.055862238943308634
10
-352.10934842051205
20
-70.448839533999134
10
-342.2754658471589
20
-70.53465308771176
10
-342.51108230561448
20
-97.533625010445036
0
ENDSEC
0
SECTION
2
OBJECTS
0
DICTIONARY
5
C
100
AcDbDictionary
3
ACAD_GROUP
350
D
3
ACAD_MLINESTYLE
350
17
0
DICTIONARY
5
D
100
AcDbDictionary
0
DICTIONARY
5
1A
330
C
100
AcDbDictionary
0
DICTIONARY
5
17
100
AcDbDictionary
0
ENDSEC
0
EOF
