0
SECTION
2
HEADER
9
$INSUNITS
70
1
9
$ACADVER
1
AC1014
9
$HANDSEED
5
FFFF
0
ENDSEC
0
SECTION
2
TABLES
0
TABLE
2
VPORT
5
8
100
AcDbSymbolTable
0
ENDTAB
0
TABLE
2
LTYPE
5
5
100
AcDbSymbolTable
0
LTYPE
5
14
100
AcDbSymbolTableRecord
100
AcDbLinetypeTableRecord
2
BYBLOCK
70
0
0
LTYPE
5
15
100
AcDbSymbolTableRecord
100
AcDbLinetypeTableRecord
2
BYLAYER
70
0
0
ENDTAB
0
TABLE
2
LAYER
5
2
100
AcDbSymbolTable
70
2
0
LAYER
5
50
100
AcDbSymbolTableRecord
100
AcDbLayerTableRecord
2
0
70
0
6
CONTINUOUS
0
ENDTAB
0
TABLE
2
STYLE
5
3
100
AcDbSymbolTable
70
1
0
STYLE
5
11
100
AcDbSymbolTableRecord
100
AcDbTextStyleTableRecord
2
STANDARD
70
0
0
ENDTAB
0
TABLE
2
VIEW
5
6
100
AcDbSymbolTable
70
0
0
ENDTAB
0
TABLE
2
UCS
5
7
100
AcDbSymbolTable
70
0
0
ENDTAB
0
TABLE
2
APPID
5
9
100
AcDbSymbolTable
70
2
0
APPID
5
12
100
AcDbSymbolTableRecord
100
AcDbRegAppTableRecord
2
ACAD
70
0
0
ENDTAB
0
TABLE
2
DIMSTYLE
5
A
100
AcDbSymbolTable
70
1
0
ENDTAB
0
TABLE
2
BLOCK_RECORD
5
1
100
AcDbSymbolTable
70
1
0
BLOCK_RECORD
5
1F
100
AcDbSymbolTableRecord
100
AcDbBlockTableRecord
2
*MODEL_SPACE
0
BLOCK_RECORD
5
1B
100
AcDbSymbolTableRecord
100
AcDbBlockTableRecord
2
*PAPER_SPACE
0
ENDTAB
0
ENDSEC
0
SECTION
2
BLOCKS
0
BLOCK
5
20
100
AcDbEntity
100
AcDbBlockBegin
2
*MODEL_SPACE
0
ENDBLK
5
21
100
AcDbEntity
100
AcDbBlockEnd
0
BLOCK
5
1C
100
AcDbEntity
100
AcDbBlockBegin
2
*PAPER_SPACE
0
ENDBLK
5
1D
100
AcDbEntity
100
AcDbBlockEnd
0
ENDSEC
0
SECTION
2
ENTITIES
0
LINE
5
100
100
AcDbEntity
8
0
100
AcDbLine
10
-337.76822259011561
20
-13.273551501438906
30
0
11
-322.78830657464005
21
-26.525050813236209
31
0
0
ARC
5
101
100
AcDbEntity
8
0
100
AcDbCircle
10
0
20
-311.75
30
0
40
430.74999999990229
210
0
220
0
230
1
100
AcDbArc
50
117.32653127009837
51
138.53526811314612
0
ARC
5
102
100
AcDbEntity
8
0
100
AcDbCircle
10
0
20
-311.75
30
0
40
450.75000000000006
210
0
220
0
230
1
100
AcDbArc
50
117.46014286611667
51
138.53385660428097
0
LINE
5
103
100
AcDbEntity
8
0
100
AcDbLine
10
-255.15176020052527
20
-78.354479558930734
30
0
11
-241.89935923614874
21
-63.375365143080423
31
0
0
LINE
5
104
100
AcDbEntity
8
0
100
AcDbLine
10
-259.12748048975811
20
-82.84821388359434
30
0
11
-255.15176020052527
21
-78.354479558930734
31
0
0
LINE
5
105
100
AcDbEntity
8
0
100
AcDbLine
10
-259.12748048975811
20
-82.84821388359434
30
0
11
-279.34928495106141
21
-64.957472581768442
31
0
0
LINE
5
106
100
AcDbEntity
8
0
100
AcDbLine
10
-272.83290504028912
20
-57.592053157799235
30
0
11
-279.34928495106141
21
-64.957472581768442
31
0
0
ARC
5
107
100
AcDbEntity
8
0
100
AcDbCircle
10
-217.99989536151486
20
-105.78272704359826
30
0
40
72.999999999999886
210
0
220
-0
230
1
100
AcDbArc
50
47.803368318954824
51
138.68897486940472
0
LINE
5
108
100
AcDbEntity
8
0
100
AcDbLine
10
-241.89935923614874
20
-63.375365143080423
30
0
11
-245.30811756557537
21
-60.359550528271114
31
0
0
ARC
5
109
100
AcDbEntity
8
0
100
AcDbCircle
10
-217.99989536157588
20
-105.78272704366941
30
0
40
53.000037402741924
210
0
220
-0
230
1
100
AcDbArc
50
47.656068234229103
51
121.01410742705488
0
LINE
5
110
100
AcDbEntity
8
0
100
AcDbLine
10
-182.30016034136861
20
-66.609612740884771
30
0
11
-179.4844465027974
21
-69.163775369032876
31
0
0
LINE
5
111
100
AcDbEntity
8
0
100
AcDbLine
10
-166.1403431316804
20
-54.264289630220318
30
0
11
-168.96747162021924
21
-51.701108890532474
31
0
0
ARC
5
112
100
AcDbEntity
8
0
100
AcDbCircle
10
0
20
126.56249999999997
30
0
40
245.56250011735187
210
0
220
0
230
1
100
AcDbArc
50
227.42377250070717
51
312.6783743516371
0
ARC
5
113
100
AcDbEntity
8
0
100
AcDbCircle
10
0
20
126.56249999999997
30
0
40
265.56250000000011
210
0
220
0
230
1
100
AcDbArc
50
227.47862761838886
51
312.66769748000212
0
LINE
5
114
100
AcDbEntity
8
0
100
AcDbLine
10
179.98371712247348
20
-68.704760381835328
30
0
11
182.90653065949192
21
-66.066331584579089
31
0
0
LINE
5
115
100
AcDbEntity
8
0
100
AcDbLine
10
166.46245673362924
20
-53.967807599829527
30
0
11
169.62498108133695
21
-51.112991442269177
31
0
0
ARC
5
116
100
AcDbEntity
8
0
100
AcDbCircle
10
218
20
-105.78343633362663
30
0
40
72.99999999999973
210
0
220
-0
230
1
100
AcDbArc
50
41.482722424889573
51
131.5039356176822
0
ARC
5
117
100
AcDbEntity
8
0
100
AcDbCircle
10
218
20
-105.78343633362663
30
0
40
52.999999999999964
210
0
220
-0
230
1
100
AcDbArc
50
58.986586005478912
51
131.46335746666537
0
LINE
5
118
100
AcDbEntity
8
0
100
AcDbLine
10
241.8993567843365
20
-63.375367312567008
30
0
11
245.30765318844911
21
-60.359961374753418
31
0
0
LINE
5
119
100
AcDbEntity
8
0
100
AcDbLine
10
259.12747803794571
20
-82.848216053080932
30
0
11
241.8993567843365
21
-63.375367312567008
31
0
0
LINE
5
120
100
AcDbEntity
8
0
100
AcDbLine
10
259.12747803794571
20
-82.848216053080932
30
0
11
279.34928249910479
21
-64.957474751093287
31
0
0
LINE
5
121
100
AcDbEntity
8
0
100
AcDbLine
10
272.68835151376186
20
-57.428661918816452
30
0
11
279.34928249910479
21
-64.957474751093287
31
0
0
ARC
5
122
100
AcDbEntity
8
0
100
AcDbCircle
10
0
20
-311.75
30
0
40
450.74999999987784
210
0
220
-0
230
1
100
AcDbArc
50
89.999999999999986
51
117.46014286611667
0
ARC
5
123
100
AcDbEntity
8
0
100
AcDbCircle
10
0
20
-311.75
30
0
40
430.74999999990223
210
0
220
0
230
1
100
AcDbArc
50
90
51
117.32653127009837
0
ARC
5
124
100
AcDbEntity
8
0
100
AcDbCircle
10
0
20
-311.75
30
0
40
430.74999999990223
210
0
220
-0
230
1
100
AcDbArc
50
41.464731886850913
51
90
0
ARC
5
125
100
AcDbEntity
8
0
100
AcDbCircle
10
0
20
-311.75
30
0
40
450.74999999987796
210
0
220
-0
230
1
100
AcDbArc
50
41.466143395718944
51
89.999999999999972
0
LINE
5
126
100
AcDbEntity
8
0
100
AcDbLine
10
337.76822259002427
20
-13.273551501519908
30
0
11
322.78830657465465
21
-26.525050813252726
31
0
0
ELLIPSE
5
127
100
AcDbEntity
8
0
100
AcDbEllipse
10
0
20
0
30
0
11
50.999999999999993
21
-7.3478807948841168e-16
31
0.0
40
0.76470588235294112
41
0
42
6.2831853071795862
0
ELLIPSE
5
128
100
AcDbEntity
8
0
100
AcDbEllipse
10
0
20
0
30
0
11
38.999999999999993
21
3.4494218175983769e-15
31
0.0
40
0.6923076923076924
41
0
42
6.2831853071795862
0
ARC
5
129
100
AcDbEntity
8
0
100
AcDbCircle
10
7.9356993417490244e-11
20
-311.75000000016627
30
0
40
435.25000000018406
210
0
220
0
230
1
100
AcDbArc
50
112.89269641016186
51
117.34118865374515
0
ARC
5
130
100
AcDbEntity
8
0
100
AcDbCircle
10
0
20
-311.75
30
0
40
435.24999999999989
210
0
220
-0
230
1
100
AcDbArc
50
62.658811346254041
51
67.107303589839248
0
ARC
5
131
100
AcDbEntity
8
0
100
AcDbCircle
10
-3.5806878022556227e-13
20
-311.74999999999898
30
0
40
446.24999999999915
210
0
220
-0
230
1
100
AcDbArc
50
62.600993451545989
51
117.39900654845395
0
ARC
5
132
100
AcDbEntity
8
0
100
AcDbCircle
10
-4.1072241845544729e-13
20
-312.87599938868118
30
0
40
436.25000000002927
210
0
220
-0
230
1
100
AcDbArc
50
62.669452707832541
51
117.3305472921674
0
ARC
5
133
100
AcDbEntity
8
0
100
AcDbCircle
10
8.9517195056390567e-14
20
-311.75000000000193
30
0
40
445.25000000000193
210
0
220
-0
230
1
100
AcDbArc
50
62.601029497000646
51
117.3989705029994
0
ARC
5
134
100
AcDbEntity
8
0
100
AcDbCircle
10
0
20
-311.7499999999996
30
0
40
436.2499999999996
210
0
220
-0
230
1
100
AcDbArc
50
62.601361342402292
51
117.3986386575977
0
LINE
5
135
100
AcDbEntity
8
0
100
AcDbLine
10
207.42923329491538
20
88.43580144049794
30
0
11
198.22057166744048
21
70.681912198431547
31
0
0
LINE
5
136
100
AcDbEntity
8
0
100
AcDbLine
10
-207.42923329491524
20
88.435801440497755
30
0
11
-198.22057166744062
21
70.681912198431732
31
0
0
ENDSEC
0
SECTION
2
OBJECTS
0
DICTIONARY
5
C
100
AcDbDictionary
3
ACAD_GROUP
350
D
3
ACAD_MLINESTYLE
350
17
0
DICTIONARY
5
D
100
AcDbDictionary
0
DICTIONARY
5
1A
330
C
100
AcDbDictionary
0
DICTIONARY
5
17
100
AcDbDictionary
0
ENDSEC
0
EOF
