0
SECTION
2
HEADER
9
$INSUNITS
70
1
9
$ACADVER
1
AC1014
9
$HANDSEED
5
FFFF
0
ENDSEC
0
SECTION
2
TABLES
0
TABLE
2
VPORT
5
8
100
AcDbSymbolTable
0
ENDTAB
0
TABLE
2
LTYPE
5
5
100
AcDbSymbolTable
0
LTYPE
5
14
100
AcDbSymbolTableRecord
100
AcDbLinetypeTableRecord
2
BYBLOCK
70
0
0
LTYPE
5
15
100
AcDbSymbolTableRecord
100
AcDbLinetypeTableRecord
2
BYLAYER
70
0
0
ENDTAB
0
TABLE
2
LAYER
5
2
100
AcDbSymbolTable
70
2
0
LAYER
5
50
100
AcDbSymbolTableRecord
100
AcDbLayerTableRecord
2
0
70
0
6
CONTINUOUS
0
ENDTAB
0
TABLE
2
STYLE
5
3
100
AcDbSymbolTable
70
1
0
STYLE
5
11
100
AcDbSymbolTableRecord
100
AcDbTextStyleTableRecord
2
STANDARD
70
0
0
ENDTAB
0
TABLE
2
VIEW
5
6
100
AcDbSymbolTable
70
0
0
ENDTAB
0
TABLE
2
UCS
5
7
100
AcDbSymbolTable
70
0
0
ENDTAB
0
TABLE
2
APPID
5
9
100
AcDbSymbolTable
70
2
0
APPID
5
12
100
AcDbSymbolTableRecord
100
AcDbRegAppTableRecord
2
ACAD
70
0
0
ENDTAB
0
TABLE
2
DIMSTYLE
5
A
100
AcDbSymbolTable
70
1
0
ENDTAB
0
TABLE
2
BLOCK_RECORD
5
1
100
AcDbSymbolTable
70
1
0
BLOCK_RECORD
5
1F
100
AcDbSymbolTableRecord
100
AcDbBlockTableRecord
2
*MODEL_SPACE
0
BLOCK_RECORD
5
1B
100
AcDbSymbolTableRecord
100
AcDbBlockTableRecord
2
*PAPER_SPACE
0
ENDTAB
0
ENDSEC
0
SECTION
2
BLOCKS
0
BLOCK
5
20
100
AcDbEntity
100
AcDbBlockBegin
2
*MODEL_SPACE
0
ENDBLK
5
21
100
AcDbEntity
100
AcDbBlockEnd
0
BLOCK
5
1C
100
AcDbEntity
100
AcDbBlockBegin
2
*PAPER_SPACE
0
ENDBLK
5
1D
100
AcDbEntity
100
AcDbBlockEnd
0
ENDSEC
0
SECTION
2
ENTITIES
0
LWPOLYLINE
5
100
100
AcDbEntity
8
0
100
AcDbPolyline
90
12
70
1
43
0.0
10
9
20
0
10
9
20
6
10
-8.9999999999999982
20
5.8124999999999991
10
-8.9999999999999982
20
0
10
-8.6249999999999982
20
0
10
-8.6249999999999982
20
0.24999999999999997
10
-8.3749999999999982
20
0.24999999999999997
10
-8.3749999999999982
20
0
10
8.375
20
0
10
8.375
20
0.24999999999999997
10
8.625
20
0.24999999999999997
10
8.625
20
0
0
LINE
5
101
100
AcDbEntity
8
0
100
AcDbLine
10
0
20
0
30
0
11
1.3987061727561026e-15
21
5.9062499999999991
31
0
0
LWPOLYLINE
5
102
100
AcDbEntity
8
0
100
AcDbPolyline
90
4
70
1
43
0.0
10
-18.864712399126248
20
0.61224590422426983
10
-11.581253902337107
20
0.61224590422426861
10
-11.581253902337107
20
4.6000296834205701
10
-18.864712399126244
20
4.6000296834205709
0
LINE
5
103
100
AcDbEntity
8
0
100
AcDbLine
10
-17.892833081825724
20
2.5433819283909376
30
0
11
-17.892833081825724
21
2.6579794141510034
31
0
0
LINE
5
104
100
AcDbEntity
8
0
100
AcDbLine
10
-17.892833081825724
20
2.6579794141510034
30
0
11
-17.230486557309295
21
2.9376519166837221
31
0
0
LINE
5
105
100
AcDbEntity
8
0
100
AcDbLine
10
-17.230486557309295
20
2.9376519166837221
30
0
11
-17.230486557309295
21
2.8155510040038845
31
0
0
LINE
5
106
100
AcDbEntity
8
0
100
AcDbLine
10
-17.230486557309295
20
2.8155510040038845
30
0
11
-17.755725315306343
21
2.5999984562186436
31
0
0
LINE
5
107
100
AcDbEntity
8
0
100
AcDbLine
10
-17.755725315306343
20
2.5999984562186436
30
0
11
-17.230486557309295
21
2.3823996387387516
31
0
0
LINE
5
108
100
AcDbEntity
8
0
100
AcDbLine
10
-17.230486557309295
20
2.3823996387387516
30
0
11
-17.230486557309295
21
2.260298726058914
31
0
0
LINE
5
109
100
AcDbEntity
8
0
100
AcDbLine
10
-17.230486557309295
20
2.260298726058914
30
0
11
-17.892833081825724
21
2.5433819283909376
31
0
0
LINE
5
110
100
AcDbEntity
8
0
100
AcDbLine
10
-17.109067671950619
20
2.406273974140392
30
0
11
-17.109067671950619
21
2.529739316924883
31
0
0
LINE
5
111
100
AcDbEntity
8
0
100
AcDbLine
10
-17.109067671950619
20
2.529739316924883
30
0
11
-16.731850807192032
21
2.529739316924883
31
0
0
LINE
5
112
100
AcDbEntity
8
0
100
AcDbLine
10
-16.731850807192032
20
2.529739316924883
30
0
11
-16.731850807192032
21
2.406273974140392
31
0
0
LINE
5
113
100
AcDbEntity
8
0
100
AcDbLine
10
-16.731850807192032
20
2.406273974140392
30
0
11
-17.109067671950619
21
2.406273974140392
31
0
0
LINE
5
114
100
AcDbEntity
8
0
100
AcDbLine
10
-16.643856141580585
20
2.406273974140392
30
0
11
-16.643856141580585
21
2.529739316924883
31
0
0
LINE
5
115
100
AcDbEntity
8
0
100
AcDbLine
10
-16.643856141580585
20
2.529739316924883
30
0
11
-16.266639276821994
21
2.529739316924883
31
0
0
LINE
5
116
100
AcDbEntity
8
0
100
AcDbLine
10
-16.266639276821994
20
2.529739316924883
30
0
11
-16.266639276821994
21
2.406273974140392
31
0
0
LINE
5
117
100
AcDbEntity
8
0
100
AcDbLine
10
-16.266639276821994
20
2.406273974140392
30
0
11
-16.643856141580585
21
2.406273974140392
31
0
0
LINE
5
118
100
AcDbEntity
8
0
100
AcDbLine
10
-16.092696590756081
20
2.1061376482741734
30
0
11
-16.092696590756081
21
3.1061376332556798
31
0
0
LINE
5
119
100
AcDbEntity
8
0
100
AcDbLine
10
-16.092696590756081
20
3.1061376332556798
30
0
11
-15.960363766409493
21
3.1061376332556798
31
0
0
LINE
5
120
100
AcDbEntity
8
0
100
AcDbLine
10
-15.960363766409493
20
3.1061376332556798
30
0
11
-15.960363766409493
21
2.1061376482741734
31
0
0
LINE
5
121
100
AcDbEntity
8
0
100
AcDbLine
10
-15.960363766409493
20
2.1061376482741734
30
0
11
-16.092696590756081
21
2.1061376482741734
31
0
0
LINE
5
122
100
AcDbEntity
8
0
100
AcDbLine
10
-15.742764948929601
20
2.1061376482741729
30
0
11
-15.742764948929601
21
2.8305578578434281
31
0
0
LINE
5
123
100
AcDbEntity
8
0
100
AcDbLine
10
-15.742764948929601
20
2.8305578578434281
30
0
11
-15.632260002558837
21
2.8305578578434281
31
0
0
LINE
5
124
100
AcDbEntity
8
0
100
AcDbLine
10
-15.632260002558837
20
2.8305578578434281
30
0
11
-15.632260002558837
21
2.7275565261236014
31
0
0
SPLINE
5
125
100
AcDbEntity
8
0
100
AcDbSpline
70
0
71
2
72
6
73
3
74
0
42
0.000000001
43
0.0000000001
44
0.0000000001
40
0
40
0
40
0
40
1
40
1
40
1
10
-15.632260002558837
20
2.7275565261236014
30
0
10
-15.55245097891949
20
2.8469289540564611
30
0
10
-15.401700600934053
20
2.8469289540564611
30
0
0
SPLINE
5
126
100
AcDbEntity
8
0
100
AcDbSpline
70
0
71
2
72
6
73
3
74
0
42
0.000000001
43
0.0000000001
44
0.0000000001
40
0
40
0
40
0
40
1
40
1
40
1
10
-15.401700600934053
20
2.8469289540564611
30
0
10
-15.336216216081921
20
2.8469289540564611
30
0
10
-15.281305225885033
20
2.8233955384498195
30
0
0
SPLINE
5
127
100
AcDbEntity
8
0
100
AcDbSpline
70
0
71
2
72
6
73
3
74
0
42
0.000000001
43
0.0000000001
44
0.0000000001
40
0
40
0
40
0
40
1
40
1
40
1
10
-15.281305225885033
20
2.8233955384498195
30
0
10
-15.226393860225814
20
2.7998621228431779
30
0
10
-15.199108637293705
20
2.7616629609231564
30
0
0
SPLINE
5
128
100
AcDbEntity
8
0
100
AcDbSpline
70
0
71
2
72
6
73
3
74
0
42
0.000000001
43
0.0000000001
44
0.0000000001
40
0
40
0
40
0
40
1
40
1
40
1
10
-15.199108637293705
20
2.7616629609231564
30
0
10
-15.171823414361596
20
2.7234637990031345
30
0
10
-15.160909475373684
20
2.6709398105647311
30
0
0
SPLINE
5
129
100
AcDbEntity
8
0
100
AcDbSpline
70
0
71
2
72
6
73
3
74
0
42
0.000000001
43
0.0000000001
44
0.0000000001
40
0
40
0
40
0
40
1
40
1
40
1
10
-15.160909475373684
20
2.6709398105647311
30
0
10
-15.154088075775073
20
2.6368333757651761
30
0
10
-15.154088075775073
20
2.5515673826318714
30
0
0
LINE
5
130
100
AcDbEntity
8
0
100
AcDbLine
10
-15.154088075775073
20
2.5515673826318714
30
0
11
-15.154088075775073
21
2.1061376482741729
31
0
0
LINE
5
131
100
AcDbEntity
8
0
100
AcDbLine
10
-15.154088075775073
20
2.1061376482741729
30
0
11
-15.276871015776074
21
2.1061376482741729
31
0
0
LINE
5
132
100
AcDbEntity
8
0
100
AcDbLine
10
-15.276871015776074
20
2.1061376482741729
30
0
11
-15.276871015776074
21
2.5467924404590776
31
0
0
SPLINE
5
133
100
AcDbEntity
8
0
100
AcDbSpline
70
0
71
2
72
6
73
3
74
0
42
0.000000001
43
0.0000000001
44
0.0000000001
40
0
40
0
40
0
40
1
40
1
40
1
10
-15.276871015776074
20
2.5467924404590776
30
0
10
-15.276871015776074
20
2.6218265219256325
30
0
10
-15.291195654563291
20
2.6590025489983287
30
0
0
SPLINE
5
134
100
AcDbEntity
8
0
100
AcDbSpline
70
0
71
2
72
6
73
3
74
0
42
0.000000001
43
0.0000000001
44
0.0000000001
40
0
40
0
40
0
40
1
40
1
40
1
10
-15.291195654563291
20
2.6590025489983287
30
0
10
-15.305520668812836
20
2.6961785760710248
30
0
10
-15.342014480833205
20
2.718347749304177
30
0
0
SPLINE
5
135
100
AcDbEntity
8
0
100
AcDbSpline
70
0
71
2
72
6
73
3
74
0
42
0.000000001
43
0.0000000001
44
0.0000000001
40
0
40
0
40
0
40
1
40
1
40
1
10
-15.342014480833205
20
2.718347749304177
30
0
10
-15.378508292853574
20
2.7405169225373296
30
0
10
-15.427621393761509
20
2.7405169225373296
30
0
0
SPLINE
5
136
100
AcDbEntity
8
0
100
AcDbSpline
70
0
71
2
72
6
73
3
74
0
42
0.000000001
43
0.0000000001
44
0.0000000001
40
0
40
0
40
0
40
1
40
1
40
1
10
-15.427621393761509
20
2.7405169225373296
30
0
10
-15.506066362758533
20
2.7405169225373296
30
0
10
-15.563023998112403
20
2.6907216065770685
30
0
0
SPLINE
5
137
100
AcDbEntity
8
0
100
AcDbSpline
70
0
71
2
72
6
73
3
74
0
42
0.000000001
43
0.0000000001
44
0.0000000001
40
0
40
0
40
0
40
1
40
1
40
1
10
-15.563023998112403
20
2.6907216065770685
30
0
10
-15.619981633466272
20
2.6409262906168078
30
0
10
-15.619981633466272
20
2.5017720666716108
30
0
0
LINE
5
138
100
AcDbEntity
8
0
100
AcDbLine
10
-15.619981633466272
20
2.5017720666716108
30
0
11
-15.619981633466272
21
2.1061376482741729
31
0
0
LINE
5
139
100
AcDbEntity
8
0
100
AcDbLine
10
-15.619981633466272
20
2.1061376482741729
30
0
11
-15.742764948929601
21
2.1061376482741729
31
0
0
LINE
5
140
100
AcDbEntity
8
0
100
AcDbLine
10
-15.014934227292205
20
2.3223724111117408
30
0
11
-14.893514966471201
21
2.3414718043405869
31
0
0
SPLINE
5
141
100
AcDbEntity
8
0
100
AcDbSpline
70
0
71
2
72
6
73
3
74
0
42
0.000000001
43
0.0000000001
44
0.0000000001
40
0
40
0
40
0
40
1
40
1
40
1
10
-14.893514966471201
20
2.3414718043405869
30
0
10
-14.883283242535615
20
2.2684841802998479
30
0
10
-14.836557331117332
20
2.2296028033274995
30
0
0
SPLINE
5
142
100
AcDbEntity
8
0
100
AcDbSpline
70
0
71
2
72
6
73
3
74
0
42
0.000000001
43
0.0000000001
44
0.0000000001
40
0
40
0
40
0
40
1
40
1
40
1
10
-14.836557331117332
20
2.2296028033274995
30
0
10
-14.789831795161376
20
2.1907216140863155
30
0
10
-14.705929856670396
20
2.1907216140863155
30
0
0
SPLINE
5
143
100
AcDbEntity
8
0
100
AcDbSpline
70
0
71
2
72
6
73
3
74
0
42
0.000000001
43
0.0000000001
44
0.0000000001
40
0
40
0
40
0
40
1
40
1
40
1
10
-14.705929856670396
20
2.1907216140863155
30
0
10
-14.621346078589418
20
2.1907216140863155
30
0
10
-14.580418431922419
20
2.2251689686808689
30
0
0
SPLINE
5
144
100
AcDbEntity
8
0
100
AcDbSpline
70
0
71
2
72
6
73
3
74
0
42
0.000000001
43
0.0000000001
44
0.0000000001
40
0
40
0
40
0
40
1
40
1
40
1
10
-14.580418431922419
20
2.2251689686808689
30
0
10
-14.539490785255419
20
2.2596165110065871
30
0
10
-14.539490785255419
20
2.3060011271675429
30
0
0
SPLINE
5
145
100
AcDbEntity
8
0
100
AcDbSpline
70
0
71
2
72
6
73
3
74
0
42
0.000000001
43
0.0000000001
44
0.0000000001
40
0
40
0
40
0
40
1
40
1
40
1
10
-14.539490785255419
20
2.3060011271675429
30
0
10
-14.539490785255419
20
2.3476109888868697
30
0
10
-14.575643302018459
20
2.3714855120196745
30
0
0
SPLINE
5
146
100
AcDbEntity
8
0
100
AcDbSpline
70
0
71
2
72
6
73
3
74
0
42
0.000000001
43
0.0000000001
44
0.0000000001
40
0
40
0
40
0
40
1
40
1
40
1
10
-14.575643302018459
20
2.3714855120196745
30
0
10
-14.600882255255918
20
2.3878566082327075
30
0
10
-14.701155102228768
20
2.4130953737390013
30
0
0
SPLINE
5
147
100
AcDbEntity
8
0
100
AcDbSpline
70
0
71
2
72
6
73
3
74
0
42
0.000000001
43
0.0000000001
44
0.0000000001
40
0
40
0
40
0
40
1
40
1
40
1
10
-14.701155102228768
20
2.4130953737390013
30
0
10
-14.836216411322333
20
2.4472018085385558
30
0
10
-14.888399292234572
20
2.4720994665186864
30
0
0
SPLINE
5
148
100
AcDbEntity
8
0
100
AcDbSpline
70
0
71
2
72
6
73
3
74
0
42
0.000000001
43
0.0000000001
44
0.0000000001
40
0
40
0
40
0
40
1
40
1
40
1
10
-14.888399292234572
20
2.4720994665186864
30
0
10
-14.940582173146813
20
2.4969971244988169
30
0
10
-14.967526100821594
20
2.540994363438958
30
0
0
SPLINE
5
149
100
AcDbEntity
8
0
100
AcDbSpline
70
0
71
2
72
6
73
3
74
0
42
0.000000001
43
0.0000000001
44
0.0000000001
40
0
40
0
40
0
40
1
40
1
40
1
10
-14.967526100821594
20
2.540994363438958
30
0
10
-14.994470028496377
20
2.5849916023790995
30
0
10
-14.994470028496377
20
2.638197618138665
30
0
0
SPLINE
5
150
100
AcDbEntity
8
0
100
AcDbSpline
70
0
71
2
72
6
73
3
74
0
42
0.000000001
43
0.0000000001
44
0.0000000001
40
0
40
0
40
0
40
1
40
1
40
1
10
-14.994470028496377
20
2.638197618138665
30
0
10
-14.994470028496377
20
2.6866286917254372
30
0
10
-14.972301230725552
20
2.7278976336497651
30
0
0
SPLINE
5
151
100
AcDbEntity
8
0
100
AcDbSpline
70
0
71
2
72
6
73
3
74
0
42
0.000000001
43
0.0000000001
44
0.0000000001
40
0
40
0
40
0
40
1
40
1
40
1
10
-14.972301230725552
20
2.7278976336497651
30
0
10
-14.950131682030072
20
2.7691662001117634
30
0
10
-14.911932895572379
20
2.7964514230438731
30
0
0
SPLINE
5
152
100
AcDbEntity
8
0
100
AcDbSpline
70
0
71
2
72
6
73
3
74
0
42
0.000000001
43
0.0000000001
44
0.0000000001
40
0
40
0
40
0
40
1
40
1
40
1
10
-14.911932895572379
20
2.7964514230438731
30
0
10
-14.883283242535615
20
2.8175974614296999
30
0
10
-14.833829221832683
20
2.8322632077430803
30
0
0
SPLINE
5
153
100
AcDbEntity
8
0
100
AcDbSpline
70
0
71
2
72
6
73
3
74
0
42
0.000000001
43
0.0000000001
44
0.0000000001
40
0
40
0
40
0
40
1
40
1
40
1
10
-14.833829221832683
20
2.8322632077430803
30
0
10
-14.78437482566742
20
2.8469289540564611
30
0
10
-14.72775811010855
20
2.8469289540564611
30
0
0
SPLINE
5
154
100
AcDbEntity
8
0
100
AcDbSpline
70
0
71
2
72
6
73
3
74
0
42
0.000000001
43
0.0000000001
44
0.0000000001
40
0
40
0
40
0
40
1
40
1
40
1
10
-14.72775811010855
20
2.8469289540564611
30
0
10
-14.642492116975246
20
2.8469289540564611
30
0
10
-14.57803086697044
20
2.8223722158713294
30
0
0
SPLINE
5
155
100
AcDbEntity
8
0
100
AcDbSpline
70
0
71
2
72
6
73
3
74
0
42
0.000000001
43
0.0000000001
44
0.0000000001
40
0
40
0
40
0
40
1
40
1
40
1
10
-14.57803086697044
20
2.8223722158713294
30
0
10
-14.513569616965635
20
2.7978156654173625
30
0
10
-14.482874069696548
20
2.755864696171872
30
0
0
SPLINE
5
156
100
AcDbEntity
8
0
100
AcDbSpline
70
0
71
2
72
6
73
3
74
0
42
0.000000001
43
0.0000000001
44
0.0000000001
40
0
40
0
40
0
40
1
40
1
40
1
10
-14.482874069696548
20
2.755864696171872
30
0
10
-14.452178146965133
20
2.7139139146575468
30
0
10
-14.440581992924894
20
2.6436547753637858
30
0
0
LINE
5
157
100
AcDbEntity
8
0
100
AcDbLine
10
-14.440581992924894
20
2.6436547753637858
30
0
11
-14.560636448178917
21
2.6272836791507532
31
0
0
SPLINE
5
158
100
AcDbEntity
8
0
100
AcDbSpline
70
0
71
2
72
6
73
3
74
0
42
0.000000001
43
0.0000000001
44
0.0000000001
40
0
40
0
40
0
40
1
40
1
40
1
10
-14.560636448178917
20
2.6272836791507532
30
0
10
-14.56882227788218
20
2.6832181796572967
30
0
10
-14.608044574649528
20
2.7145961297098733
30
0
0
SPLINE
5
159
100
AcDbEntity
8
0
100
AcDbSpline
70
0
71
2
72
6
73
3
74
0
42
0.000000001
43
0.0000000001
44
0.0000000001
40
0
40
0
40
0
40
1
40
1
40
1
10
-14.608044574649528
20
2.7145961297098733
30
0
10
-14.647266871416875
20
2.7459738920312855
30
0
10
-14.71889044081529
20
2.7459738920312855
30
0
0
SPLINE
5
160
100
AcDbEntity
8
0
100
AcDbSpline
70
0
71
2
72
6
73
3
74
0
42
0.000000001
43
0.0000000001
44
0.0000000001
40
0
40
0
40
0
40
1
40
1
40
1
10
-14.71889044081529
20
2.7459738920312855
30
0
10
-14.803474218896268
20
2.7459738920312855
30
0
10
-14.839627111121638
20
2.7180066417780138
30
0
0
SPLINE
5
161
100
AcDbEntity
8
0
100
AcDbSpline
70
0
71
2
72
6
73
3
74
0
42
0.000000001
43
0.0000000001
44
0.0000000001
40
0
40
0
40
0
40
1
40
1
40
1
10
-14.839627111121638
20
2.7180066417780138
30
0
10
-14.875779627884679
20
2.690039391524742
30
0
10
-14.875779627884679
20
2.652522444657047
30
0
0
SPLINE
5
162
100
AcDbEntity
8
0
100
AcDbSpline
70
0
71
2
72
6
73
3
74
0
42
0.000000001
43
0.0000000001
44
0.0000000001
40
0
40
0
40
0
40
1
40
1
40
1
10
-14.875779627884679
20
2.652522444657047
30
0
10
-14.875779627884679
20
2.6286479215242422
30
0
10
-14.860773149507464
20
2.6095483405642312
30
0
0
SPLINE
5
163
100
AcDbEntity
8
0
100
AcDbSpline
70
0
71
2
72
6
73
3
74
0
42
0.000000001
43
0.0000000001
44
0.0000000001
40
0
40
0
40
0
40
1
40
1
40
1
10
-14.860773149507464
20
2.6095483405642312
30
0
10
-14.84576629566792
20
2.5897665445518934
30
0
10
-14.813706318294182
20
2.5768061481381652
30
0
0
SPLINE
5
164
100
AcDbEntity
8
0
100
AcDbSpline
70
0
71
2
72
6
73
3
74
0
42
0.000000001
43
0.0000000001
44
0.0000000001
40
0
40
0
40
0
40
1
40
1
40
1
10
-14.813706318294182
20
2.5768061481381652
30
0
10
-14.795288764655332
20
2.5699849362707203
30
0
10
-14.705247641618069
20
2.5454281980855886
30
0
0
SPLINE
5
165
100
AcDbEntity
8
0
100
AcDbSpline
70
0
71
2
72
6
73
3
74
0
42
0.000000001
43
0.0000000001
44
0.0000000001
40
0
40
0
40
0
40
1
40
1
40
1
10
-14.705247641618069
20
2.5454281980855886
30
0
10
-14.574961462428464
20
2.5106397359648716
30
0
10
-14.52346079656855
20
2.4884705627317194
30
0
0
SPLINE
5
166
100
AcDbEntity
8
0
100
AcDbSpline
70
0
71
2
72
6
73
3
74
0
42
0.000000001
43
0.0000000001
44
0.0000000001
40
0
40
0
40
0
40
1
40
1
40
1
10
-14.52346079656855
20
2.4884705627317194
30
0
10
-14.471959755246306
20
2.4663013894985668
30
0
10
-14.442628638081876
20
2.4240093127269136
30
0
0
SPLINE
5
167
100
AcDbEntity
8
0
100
AcDbSpline
70
0
71
2
72
6
73
3
74
0
42
0.000000001
43
0.0000000001
44
0.0000000001
40
0
40
0
40
0
40
1
40
1
40
1
10
-14.442628638081876
20
2.4240093127269136
30
0
10
-14.413296769992785
20
2.3817174236864247
30
0
10
-14.413296769992785
20
2.3189617113124354
30
0
0
SPLINE
5
168
100
AcDbEntity
8
0
100
AcDbSpline
70
0
71
2
72
6
73
3
74
0
42
0.000000001
43
0.0000000001
44
0.0000000001
40
0
40
0
40
0
40
1
40
1
40
1
10
-14.413296769992785
20
2.3189617113124354
30
0
10
-14.413296769992785
20
2.2575700535807712
30
0
10
-14.449108742423157
20
2.20334090297388
30
0
0
SPLINE
5
169
100
AcDbEntity
8
0
100
AcDbSpline
70
0
71
2
72
6
73
3
74
0
42
0.000000001
43
0.0000000001
44
0.0000000001
40
0
40
0
40
0
40
1
40
1
40
1
10
-14.449108742423157
20
2.20334090297388
30
0
10
-14.4849203393912
20
2.1491117523669887
30
0
10
-14.552450993937983
20
2.1194391522140643
30
0
0
SPLINE
5
170
100
AcDbEntity
8
0
100
AcDbSpline
70
0
71
2
72
6
73
3
74
0
42
0.000000001
43
0.0000000001
44
0.0000000001
40
0
40
0
40
0
40
1
40
1
40
1
10
-14.552450993937983
20
2.1194391522140643
30
0
10
-14.619981648484766
20
2.0897665520611399
30
0
10
-14.705247641618069
20
2.0897665520611399
30
0
0
SPLINE
5
171
100
AcDbEntity
8
0
100
AcDbSpline
70
0
71
2
72
6
73
3
74
0
42
0.000000001
43
0.0000000001
44
0.0000000001
40
0
40
0
40
0
40
1
40
1
40
1
10
-14.705247641618069
20
2.0897665520611399
30
0
10
-14.846448510720247
20
2.0897665520611399
30
0
10
-14.920459269608312
20
2.1484295373146618
30
0
0
SPLINE
5
172
100
AcDbEntity
8
0
100
AcDbSpline
70
0
71
2
72
6
73
3
74
0
42
0.000000001
43
0.0000000001
44
0.0000000001
40
0
40
0
40
0
40
1
40
1
40
1
10
-14.920459269608312
20
2.1484295373146618
30
0
10
-14.994470028496377
20
2.2070927102993481
30
0
10
-15.014934227292205
20
2.3223724111117408
30
0
0
LINE
5
173
100
AcDbEntity
8
0
100
AcDbLine
10
-14.266639306858981
20
2.9649371396158313
30
0
11
-14.266639306858981
21
3.1061376332556798
31
0
0
LINE
5
174
100
AcDbEntity
8
0
100
AcDbLine
10
-14.266639306858981
20
3.1061376332556798
30
0
11
-14.143856366857982
21
3.1061376332556798
31
0
0
LINE
5
175
100
AcDbEntity
8
0
100
AcDbLine
10
-14.143856366857982
20
3.1061376332556798
30
0
11
-14.143856366857982
21
2.9649371396158313
31
0
0
LINE
5
176
100
AcDbEntity
8
0
100
AcDbLine
10
-14.143856366857982
20
2.9649371396158313
30
0
11
-14.266639306858981
21
2.9649371396158313
31
0
0
LINE
5
177
100
AcDbEntity
8
0
100
AcDbLine
10
-14.266639306858981
20
2.1061376482741729
30
0
11
-14.266639306858981
21
2.8305578578434281
31
0
0
LINE
5
178
100
AcDbEntity
8
0
100
AcDbLine
10
-14.266639306858981
20
2.8305578578434281
30
0
11
-14.143856366857982
21
2.8305578578434281
31
0
0
LINE
5
179
100
AcDbEntity
8
0
100
AcDbLine
10
-14.143856366857982
20
2.8305578578434281
30
0
11
-14.143856366857982
21
2.1061376482741729
31
0
0
LINE
5
180
100
AcDbEntity
8
0
100
AcDbLine
10
-14.143856366857982
20
2.1061376482741729
30
0
11
-14.266639306858981
21
2.1061376482741729
31
0
0
LINE
5
181
100
AcDbEntity
8
0
100
AcDbLine
10
-13.486966624104344
20
2.1061376482741725
30
0
11
-13.486966624104344
21
2.1975428259537599
31
0
0
SPLINE
5
182
100
AcDbEntity
8
0
100
AcDbSpline
70
0
71
2
72
6
73
3
74
0
42
0.000000001
43
0.0000000001
44
0.0000000001
40
0
40
0
40
0
40
1
40
1
40
1
10
-13.486966624104344
20
2.1975428259537599
30
0
10
-13.555861708755781
20
2.0897665520611395
30
0
10
-13.689558963207022
20
2.0897665520611395
30
0
0
SPLINE
5
183
100
AcDbEntity
8
0
100
AcDbSpline
70
0
71
2
72
6
73
3
74
0
42
0.000000001
43
0.0000000001
44
0.0000000001
40
0
40
0
40
0
40
1
40
1
40
1
10
-13.689558963207022
20
2.0897665520611395
30
0
10
-13.77618901098265
20
2.0897665520611399
30
0
10
-13.848835715228391
20
2.1375155983267495
30
0
0
SPLINE
5
184
100
AcDbEntity
8
0
100
AcDbSpline
70
0
71
2
72
6
73
3
74
0
42
0.000000001
43
0.0000000001
44
0.0000000001
40
0
40
0
40
0
40
1
40
1
40
1
10
-13.848835715228391
20
2.1375155983267495
30
0
10
-13.921482419474131
20
2.1852644568611947
30
0
10
-13.961386931293806
20
2.2708715575206626
30
0
0
SPLINE
5
185
100
AcDbEntity
8
0
100
AcDbSpline
70
0
71
2
72
6
73
3
74
0
42
0.000000001
43
0.0000000001
44
0.0000000001
40
0
40
0
40
0
40
1
40
1
40
1
10
-13.961386931293806
20
2.2708715575206626
30
0
10
-14.001291443113479
20
2.3564786581801305
30
0
10
-14.001291443113479
20
2.4676656318720558
30
0
0
SPLINE
5
186
100
AcDbEntity
8
0
100
AcDbSpline
70
0
71
2
72
6
73
3
74
0
42
0.000000001
43
0.0000000001
44
0.0000000001
40
0
40
0
40
0
40
1
40
1
40
1
10
-14.001291443113479
20
2.4676656318720558
30
0
10
-14.001291443113479
20
2.5761239330858388
30
0
10
-13.965138550888108
20
2.6644595184922846
30
0
0
SPLINE
5
187
100
AcDbEntity
8
0
100
AcDbSpline
70
0
71
2
72
6
73
3
74
0
42
0.000000001
43
0.0000000001
44
0.0000000001
40
0
40
0
40
0
40
1
40
1
40
1
10
-13.965138550888108
20
2.6644595184922846
30
0
10
-13.928985658662738
20
2.7527952916298952
30
0
10
-13.856680249674326
20
2.7998621228431779
30
0
0
SPLINE
5
188
100
AcDbEntity
8
0
100
AcDbSpline
70
0
71
2
72
6
73
3
74
0
42
0.000000001
43
0.0000000001
44
0.0000000001
40
0
40
0
40
0
40
1
40
1
40
1
10
-13.856680249674326
20
2.7998621228431779
30
0
10
-13.784374840685913
20
2.8469289540564611
30
0
10
-13.695015932700978
20
2.8469289540564606
30
0
0
SPLINE
5
189
100
AcDbEntity
8
0
100
AcDbSpline
70
0
71
2
72
6
73
3
74
0
42
0.000000001
43
0.0000000001
44
0.0000000001
40
0
40
0
40
0
40
1
40
1
40
1
10
-13.695015932700978
20
2.8469289540564606
30
0
10
-13.629531547848845
20
2.8469289540564606
30
0
10
-13.578371801783932
20
2.8193028113293521
30
0
0
SPLINE
5
190
100
AcDbEntity
8
0
100
AcDbSpline
70
0
71
2
72
6
73
3
74
0
42
0.000000001
43
0.0000000001
44
0.0000000001
40
0
40
0
40
0
40
1
40
1
40
1
10
-13.578371801783932
20
2.8193028113293521
30
0
10
-13.527212431181347
20
2.7916764808710792
30
0
10
-13.495152453807608
20
2.7473381344047745
30
0
0
LINE
5
191
100
AcDbEntity
8
0
100
AcDbLine
10
-13.495152453807608
20
2.7473381344047745
30
0
11
-13.495152453807608
21
3.1061376332556794
31
0
0
LINE
5
192
100
AcDbEntity
8
0
100
AcDbLine
10
-13.495152453807608
20
3.1061376332556794
30
0
11
-13.373051353396605
21
3.1061376332556794
31
0
0
LINE
5
193
100
AcDbEntity
8
0
100
AcDbLine
10
-13.373051353396605
20
3.1061376332556794
30
0
11
-13.373051353396605
21
2.1061376482741725
31
0
0
LINE
5
194
100
AcDbEntity
8
0
100
AcDbLine
10
-13.373051353396605
20
2.1061376482741725
30
0
11
-13.486966624104344
21
2.1061376482741725
31
0
0
SPLINE
5
195
100
AcDbEntity
8
0
100
AcDbSpline
70
0
71
2
72
6
73
3
74
0
42
0.000000001
43
0.0000000001
44
0.0000000001
40
0
40
0
40
0
40
1
40
1
40
1
10
-13.875097803313174
20
2.4676656318720558
30
0
10
-13.875097803313174
20
2.3285114079268587
30
0
10
-13.816434818059653
20
2.2596165110065871
30
0
0
SPLINE
5
196
100
AcDbEntity
8
0
100
AcDbSpline
70
0
71
2
72
6
73
3
74
0
42
0.000000001
43
0.0000000001
44
0.0000000001
40
0
40
0
40
0
40
1
40
1
40
1
10
-13.816434818059653
20
2.2596165110065871
30
0
10
-13.757771832806132
20
2.1907216140863155
30
0
10
-13.677962809166782
20
2.190721614086315
30
0
0
SPLINE
5
197
100
AcDbEntity
8
0
100
AcDbSpline
70
0
71
2
72
6
73
3
74
0
42
0.000000001
43
0.0000000001
44
0.0000000001
40
0
40
0
40
0
40
1
40
1
40
1
10
-13.677962809166782
20
2.190721614086315
30
0
10
-13.597471570475108
20
2.190721614086315
30
0
10
-13.541195774711236
20
2.256546918733445
30
0
0
SPLINE
5
198
100
AcDbEntity
8
0
100
AcDbSpline
70
0
71
2
72
6
73
3
74
0
42
0.000000001
43
0.0000000001
44
0.0000000001
40
0
40
0
40
0
40
1
40
1
40
1
10
-13.541195774711236
20
2.256546918733445
30
0
10
-13.484920354409693
20
2.3223724111117403
30
0
10
-13.484920354409693
20
2.4574337202053056
30
0
0
SPLINE
5
199
100
AcDbEntity
8
0
100
AcDbSpline
70
0
71
2
72
6
73
3
74
0
42
0.000000001
43
0.0000000001
44
0.0000000001
40
0
40
0
40
0
40
1
40
1
40
1
10
-13.484920354409693
20
2.4574337202053056
30
0
10
-13.484920354409693
20
2.6061376407649259
30
0
10
-13.542218909558562
20
2.6757147527375245
30
0
0
SPLINE
5
200
100
AcDbEntity
8
0
100
AcDbSpline
70
0
71
2
72
6
73
3
74
0
42
0.000000001
43
0.0000000001
44
0.0000000001
40
0
40
0
40
0
40
1
40
1
40
1
10
-13.542218909558562
20
2.6757147527375245
30
0
10
-13.599517840169758
20
2.745291864710123
30
0
10
-13.683419778660738
20
2.745291864710123
30
0
0
SPLINE
5
201
100
AcDbEntity
8
0
100
AcDbSpline
70
0
71
2
72
6
73
3
74
0
42
0.000000001
43
0.0000000001
44
0.0000000001
40
0
40
0
40
0
40
1
40
1
40
1
10
-13.683419778660738
20
2.745291864710123
30
0
10
-13.765275071994738
20
2.7452918647101234
30
0
10
-13.820186437653957
20
2.6784432374845029
30
0
0
SPLINE
5
202
100
AcDbEntity
8
0
100
AcDbSpline
70
0
71
2
72
6
73
3
74
0
42
0.000000001
43
0.0000000001
44
0.0000000001
40
0
40
0
40
0
40
1
40
1
40
1
10
-13.820186437653957
20
2.6784432374845029
30
0
10
-13.875097803313174
20
2.6115946102588823
30
0
10
-13.875097803313174
20
2.4676656318720558
30
0
0
LINE
5
203
100
AcDbEntity
8
0
100
AcDbLine
10
-12.684101633269229
20
2.3394255346459354
30
0
11
-12.557225402954268
21
2.3237364657540645
31
0
0
SPLINE
5
204
100
AcDbEntity
8
0
100
AcDbSpline
70
0
71
2
72
6
73
3
74
0
42
0.000000001
43
0.0000000001
44
0.0000000001
40
0
40
0
40
0
40
1
40
1
40
1
10
-12.557225402954268
20
2.3237364657540645
30
0
10
-12.587239861558015
20
2.212549679793304
30
0
10
-12.668412564377359
20
2.1511580220616393
30
0
0
SPLINE
5
205
100
AcDbEntity
8
0
100
AcDbSpline
70
0
71
2
72
6
73
3
74
0
42
0.000000001
43
0.0000000001
44
0.0000000001
40
0
40
0
40
0
40
1
40
1
40
1
10
-12.668412564377359
20
2.1511580220616393
30
0
10
-12.749586018121361
20
2.0897665520611395
30
0
10
-12.875779657921665
20
2.0897665520611395
30
0
0
SPLINE
5
206
100
AcDbEntity
8
0
100
AcDbSpline
70
0
71
2
72
6
73
3
74
0
42
0.000000001
43
0.0000000001
44
0.0000000001
40
0
40
0
40
0
40
1
40
1
40
1
10
-12.875779657921665
20
2.0897665520611395
30
0
10
-13.034715490148036
20
2.0897665520611395
30
0
10
-13.127826017727276
20
2.1876520218131734
30
0
0
SPLINE
5
207
100
AcDbEntity
8
0
100
AcDbSpline
70
0
71
2
72
6
73
3
74
0
42
0.000000001
43
0.0000000001
44
0.0000000001
40
0
40
0
40
0
40
1
40
1
40
1
10
-13.127826017727276
20
2.1876520218131734
30
0
10
-13.220936545306516
20
2.2855373038340425
30
0
10
-13.220936545306516
20
2.4622086623780994
30
0
0
SPLINE
5
208
100
AcDbEntity
8
0
100
AcDbSpline
70
0
71
2
72
6
73
3
74
0
42
0.000000001
43
0.0000000001
44
0.0000000001
40
0
40
0
40
0
40
1
40
1
40
1
10
-13.220936545306516
20
2.4622086623780994
30
0
10
-13.220936545306516
20
2.6450188300061099
30
0
10
-13.12680288287995
20
2.7459738920312851
30
0
0
SPLINE
5
209
100
AcDbEntity
8
0
100
AcDbSpline
70
0
71
2
72
6
73
3
74
0
42
0.000000001
43
0.0000000001
44
0.0000000001
40
0
40
0
40
0
40
1
40
1
40
1
10
-13.12680288287995
20
2.7459738920312851
30
0
10
-13.032669220453384
20
2.8469289540564606
30
0
10
-12.882601057520276
20
2.8469289540564606
30
0
0
SPLINE
5
210
100
AcDbEntity
8
0
100
AcDbSpline
70
0
71
2
72
6
73
3
74
0
42
0.000000001
43
0.0000000001
44
0.0000000001
40
0
40
0
40
0
40
1
40
1
40
1
10
-12.882601057520276
20
2.8469289540564606
30
0
10
-12.737307649028795
20
2.8469289540564606
30
0
10
-12.645220256296881
20
2.7480203494571009
30
0
0
SPLINE
5
211
100
AcDbEntity
8
0
100
AcDbSpline
70
0
71
2
72
6
73
3
74
0
42
0.000000001
43
0.0000000001
44
0.0000000001
40
0
40
0
40
0
40
1
40
1
40
1
10
-12.645220256296881
20
2.7480203494571009
30
0
10
-12.553132863564965
20
2.6491117448577417
30
0
10
-12.553132863564965
20
2.4697120892978712
30
0
0
SPLINE
5
212
100
AcDbEntity
8
0
100
AcDbSpline
70
0
71
2
72
6
73
3
74
0
42
0.000000001
43
0.0000000001
44
0.0000000001
40
0
40
0
40
0
40
1
40
1
40
1
10
-12.553132863564965
20
2.4697120892978712
30
0
10
-12.553132863564965
20
2.4587979625787946
30
0
10
-12.553814703154963
20
2.4369698968718057
30
0
0
LINE
5
213
100
AcDbEntity
8
0
100
AcDbLine
10
-12.553814703154963
20
2.4369698968718057
30
0
11
-13.094060690453885
21
2.4369698968718057
31
0
0
SPLINE
5
214
100
AcDbEntity
8
0
100
AcDbSpline
70
0
71
2
72
6
73
3
74
0
42
0.000000001
43
0.0000000001
44
0.0000000001
40
0
40
0
40
0
40
1
40
1
40
1
10
-13.094060690453885
20
2.4369698968718057
30
0
10
-13.087239290855274
20
2.3175974689389465
30
0
10
-13.026530035907102
20
2.2541595415126308
30
0
0
SPLINE
5
215
100
AcDbEntity
8
0
100
AcDbSpline
70
0
71
2
72
6
73
3
74
0
42
0.000000001
43
0.0000000001
44
0.0000000001
40
0
40
0
40
0
40
1
40
1
40
1
10
-13.026530035907102
20
2.2541595415126308
30
0
10
-12.965820405496599
20
2.190721614086315
30
0
10
-12.875097442869338
20
2.190721614086315
30
0
0
SPLINE
5
216
100
AcDbEntity
8
0
100
AcDbSpline
70
0
71
2
72
6
73
3
74
0
42
0.000000001
43
0.0000000001
44
0.0000000001
40
0
40
0
40
0
40
1
40
1
40
1
10
-12.875097442869338
20
2.190721614086315
30
0
10
-12.807566788322555
20
2.190721614086315
30
0
10
-12.759817742056946
20
2.2261922912593586
30
0
0
SPLINE
5
217
100
AcDbEntity
8
0
100
AcDbSpline
70
0
71
2
72
6
73
3
74
0
42
0.000000001
43
0.0000000001
44
0.0000000001
40
0
40
0
40
0
40
1
40
1
40
1
10
-12.759817742056946
20
2.2261922912593586
30
0
10
-12.712068695791336
20
2.2616629684324026
30
0
10
-12.684101633269229
20
2.3394255346459354
30
0
0
LINE
5
218
100
AcDbEntity
8
0
100
AcDbLine
10
-13.087239290855274
20
2.5379247711658164
30
0
11
-12.682737203164576
21
2.5379247711658164
31
0
0
SPLINE
5
219
100
AcDbEntity
8
0
100
AcDbSpline
70
0
71
2
72
6
73
3
74
0
42
0.000000001
43
0.0000000001
44
0.0000000001
40
0
40
0
40
0
40
1
40
1
40
1
10
-12.682737203164576
20
2.5379247711658164
30
0
10
-12.69092303286784
20
2.6293299488454038
30
0
10
-12.729122194787861
20
2.6750325376851976
30
0
0
SPLINE
5
220
100
AcDbEntity
8
0
100
AcDbSpline
70
0
71
2
72
6
73
3
74
0
42
0.000000001
43
0.0000000001
44
0.0000000001
40
0
40
0
40
0
40
1
40
1
40
1
10
-12.729122194787861
20
2.6750325376851976
30
0
10
-12.787785180041382
20
2.7459738920312851
30
0
10
-12.881236627415621
20
2.7459738920312851
30
0
0
SPLINE
5
221
100
AcDbEntity
8
0
100
AcDbSpline
70
0
71
2
72
6
73
3
74
0
42
0.000000001
43
0.0000000001
44
0.0000000001
40
0
40
0
40
0
40
1
40
1
40
1
10
-12.881236627415621
20
2.7459738920312851
30
0
10
-12.965820405496599
20
2.7459738920312851
30
0
10
-13.023460255902796
20
2.6893571764724147
30
0
0
SPLINE
5
222
100
AcDbEntity
8
0
100
AcDbSpline
70
0
71
2
72
6
73
3
74
0
42
0.000000001
43
0.0000000001
44
0.0000000001
40
0
40
0
40
0
40
1
40
1
40
1
10
-13.023460255902796
20
2.6893571764724147
30
0
10
-13.081100106308991
20
2.6327406486447087
30
0
10
-13.087239290855274
20
2.5379247711658164
30
0
0
ENDSEC
0
SECTION
2
OBJECTS
0
DICTIONARY
5
C
100
AcDbDictionary
3
ACAD_GROUP
350
D
3
ACAD_MLINESTYLE
350
17
0
DICTIONARY
5
D
100
AcDbDictionary
0
DICTIONARY
5
1A
330
C
100
AcDbDictionary
0
DICTIONARY
5
17
100
AcDbDictionary
0
ENDSEC
0
EOF
