0
SECTION
2
HEADER
9
$INSUNITS
70
1
9
$ACADVER
1
AC1014
9
$HANDSEED
5
FFFF
0
ENDSEC
0
SECTION
2
TABLES
0
TABLE
2
VPORT
5
8
100
AcDbSymbolTable
0
ENDTAB
0
TABLE
2
LTYPE
5
5
100
AcDbSymbolTable
0
LTYPE
5
14
100
AcDbSymbolTableRecord
100
AcDbLinetypeTableRecord
2
BYBLOCK
70
0
0
LTYPE
5
15
100
AcDbSymbolTableRecord
100
AcDbLinetypeTableRecord
2
BYLAYER
70
0
0
ENDTAB
0
TABLE
2
LAYER
5
2
100
AcDbSymbolTable
70
2
0
LAYER
5
50
100
AcDbSymbolTableRecord
100
AcDbLayerTableRecord
2
0
70
0
6
CONTINUOUS
0
ENDTAB
0
TABLE
2
STYLE
5
3
100
AcDbSymbolTable
70
1
0
STYLE
5
11
100
AcDbSymbolTableRecord
100
AcDbTextStyleTableRecord
2
STANDARD
70
0
0
ENDTAB
0
TABLE
2
VIEW
5
6
100
AcDbSymbolTable
70
0
0
ENDTAB
0
TABLE
2
UCS
5
7
100
AcDbSymbolTable
70
0
0
ENDTAB
0
TABLE
2
APPID
5
9
100
AcDbSymbolTable
70
2
0
APPID
5
12
100
AcDbSymbolTableRecord
100
AcDbRegAppTableRecord
2
ACAD
70
0
0
ENDTAB
0
TABLE
2
DIMSTYLE
5
A
100
AcDbSymbolTable
70
1
0
ENDTAB
0
TABLE
2
BLOCK_RECORD
5
1
100
AcDbSymbolTable
70
1
0
BLOCK_RECORD
5
1F
100
AcDbSymbolTableRecord
100
AcDbBlockTableRecord
2
*MODEL_SPACE
0
BLOCK_RECORD
5
1B
100
AcDbSymbolTableRecord
100
AcDbBlockTableRecord
2
*PAPER_SPACE
0
ENDTAB
0
ENDSEC
0
SECTION
2
BLOCKS
0
BLOCK
5
20
100
AcDbEntity
100
AcDbBlockBegin
2
*MODEL_SPACE
0
ENDBLK
5
21
100
AcDbEntity
100
AcDbBlockEnd
0
BLOCK
5
1C
100
AcDbEntity
100
AcDbBlockBegin
2
*PAPER_SPACE
0
ENDBLK
5
1D
100
AcDbEntity
100
AcDbBlockEnd
0
ENDSEC
0
SECTION
2
ENTITIES
0
LWPOLYLINE
5
100
100
AcDbEntity
8
0
100
AcDbPolyline
90
4
70
1
43
0.0
10
0
20
0
10
160.9779404679424
20
4.4778478041748539e-25
10
157.70220836220054
20
9.0000000022269067
10
3.2757321057418709
20
9.0000000022269386
0
LINE
5
101
100
AcDbEntity
8
0
100
AcDbLine
10
160.9779404679424
20
4.4778478041748539e-25
30
0
11
198.63175784365765
21
31.595304272378833
31
0
0
LINE
5
102
100
AcDbEntity
8
0
100
AcDbLine
10
0
20
0
30
0
11
-37.653817375715612
21
31.595304272378833
31
0
0
LINE
5
103
100
AcDbEntity
8
0
100
AcDbLine
10
157.70220836220054
20
9.0000000022269067
30
0
11
192.8466693564784
21
38.489704260449336
31
0
0
LINE
5
104
100
AcDbEntity
8
0
100
AcDbLine
10
3.2757321057418709
20
9.0000000022269386
30
0
11
-31.868728888536712
21
38.489704260449656
31
0
0
LINE
5
105
100
AcDbEntity
8
0
100
AcDbLine
10
1.0421910580818785
20
2.8633964018658755
30
0
11
3.1370644343804166
21
8.6190137059500458
31
0
0
LWPOLYLINE
5
106
100
AcDbEntity
8
0
100
AcDbPolyline
90
11
70
1
43
0.0
10
0.043767648344839885
20
3.226792803731751
10
2.0406144678189175
20
2.4999999999999996
10
7.7875927262008515
20
7.3254265009353121
10
7.7875927257556956
20
8.3896042734111873
10
5.9602149717471375
20
8.3896042726468654
10
5.3513151319060972
20
7.8130923603550038
10
0.92281373586383963
20
9.424935048822606
10
0.5704290032992303
20
9.5531926024388945
10
0.82694411049865379
20
10.257962068135631
10
-0.57290846393021888
20
11.432577846043577
10
-1.2569487502405565
20
10.617370376661496
0
LINE
5
107
100
AcDbEntity
8
0
100
AcDbLine
10
3.1370644343804166
20
8.6190137059500458
30
0
11
3.2653219879801472
21
8.971398438798408
31
0
0
LINE
5
108
100
AcDbEntity
8
0
100
AcDbLine
10
-1.2569487502405565
20
10.617370376661496
30
0
11
7.7875927262008515
21
7.3254265009353121
31
0
0
LINE
5
109
100
AcDbEntity
8
0
100
AcDbLine
10
3.2653219879801472
20
8.971398438798408
30
0
11
3.6073421309127376
21
9.9110910597273811
31
0
0
LINE
5
110
100
AcDbEntity
8
0
100
AcDbLine
10
-0.57290846393021888
20
11.432577846043577
30
0
11
7.7875927257556956
21
8.3896042734111873
31
0
0
LINE
5
111
100
AcDbEntity
8
0
100
AcDbLine
10
0.82694411049865379
20
10.257962068135631
30
0
11
5.9602149717471375
21
8.3896042726468654
31
0
0
LINE
5
112
100
AcDbEntity
8
0
100
AcDbLine
10
0.82694411049865379
20
10.257962068135631
30
0
11
0.92281373586383963
21
9.424935048822606
31
0
0
LINE
5
113
100
AcDbEntity
8
0
100
AcDbLine
10
80.488970233971216
20
9.0000000022269209
30
0
11
80.488970233971187
21
-3.3933690391012568e-25
31
0
0
LINE
5
114
100
AcDbEntity
8
0
100
AcDbLine
10
-0.57290846393021888
20
11.432577846043577
30
0
11
-0.18055365019726444
21
11.900168105278679
31
0
0
LINE
5
115
100
AcDbEntity
8
0
100
AcDbLine
10
-24.693829955149319
20
32.469249211710185
30
0
11
-25.015223759992256
21
32.086226990151054
31
0
0
LINE
5
116
100
AcDbEntity
8
0
100
AcDbLine
10
-25.015223759992256
20
32.086226990151054
30
0
11
-30.478918442327938
21
25.574849223639127
31
0
0
LINE
5
117
100
AcDbEntity
8
0
100
AcDbLine
10
-26.22591884138734
20
33.754824431083186
30
0
11
-26.547312646230598
21
33.371802209523679
31
0
0
LINE
5
118
100
AcDbEntity
8
0
100
AcDbLine
10
-26.547312646230598
20
33.371802209523679
30
0
11
-32.011007331122435
21
26.860424439966145
31
0
0
LINE
5
119
100
AcDbEntity
8
0
100
AcDbLine
10
-28.524052170744003
20
35.683187260143292
30
0
11
-28.845445976396306
21
35.300165037619443
31
0
0
LINE
5
120
100
AcDbEntity
8
0
100
AcDbLine
10
-28.845445976396306
20
35.300165037619443
30
0
11
-34.309140657922718
21
28.788787272072412
31
0
0
LWPOLYLINE
5
121
100
AcDbEntity
8
0
100
AcDbPolyline
90
7
70
1
43
0.0
10
-25.015223759992256
20
32.086226990151054
10
-25.658011369679087
20
31.320182547031671
10
-31.368219718879566
20
27.626468886131697
10
-33.666353048236168
20
29.554831715191415
10
-31.416596414333569
20
32.235987266107415
10
-30.267529749655068
20
31.271805851577653
10
-26.738823757010035
20
33.532499111945796
0
LINE
5
122
100
AcDbEntity
8
0
100
AcDbLine
10
-26.417429952167058
20
33.915521333504884
30
0
11
-26.738823757010035
21
33.532499111945796
31
0
0
LWPOLYLINE
5
123
100
AcDbEntity
8
0
100
AcDbPolyline
90
7
70
1
43
0.0
10
192.39453688227601
20
32.235987266106598
10
191.24547021759747
20
31.27180585157684
10
187.71676422495247
20
33.532499111944993
10
185.99316422793467
20
32.086226990150266
10
186.63595183762152
20
31.320182547030882
10
192.34616018682198
20
27.626468886130862
10
194.64429351617861
20
29.554831715190552
0
LINE
5
124
100
AcDbEntity
8
0
100
AcDbLine
10
189.50199263868649
20
35.683187260142951
30
0
11
195.28708112586511
21
28.788787272071929
31
0
0
LINE
5
125
100
AcDbEntity
8
0
100
AcDbLine
10
55.150965233970581
20
1.5341085110990122e-25
30
0
11
55.150965233970624
21
8.5000000022269386
31
0
0
LINE
5
126
100
AcDbEntity
8
0
100
AcDbLine
10
105.82697523397114
20
2.9437392930758369e-25
30
0
11
105.82697523397108
21
8.5000000022269386
31
0
0
LINE
5
127
100
AcDbEntity
8
0
100
AcDbLine
10
51.838465233970616
20
8.5000000022269386
30
0
11
53.338465233971377
21
8.5000000022269386
31
0
0
LINE
5
128
100
AcDbEntity
8
0
100
AcDbLine
10
53.338465233971377
20
8.5000000022269386
30
0
11
53.338465233971377
21
7.7500000022269395
31
0
0
LINE
5
129
100
AcDbEntity
8
0
100
AcDbLine
10
51.838465233970616
20
8.5000000022269386
30
0
11
51.838465233970595
21
7.5000000022269395
31
0
0
LINE
5
130
100
AcDbEntity
8
0
100
AcDbLine
10
58.463465233970631
20
8.5000000022269386
30
0
11
58.463465233970545
21
7.5000000022269395
31
0
0
LINE
5
131
100
AcDbEntity
8
0
100
AcDbLine
10
58.463465233970631
20
8.5000000022269386
30
0
11
56.963465233971171
21
8.5000000022269386
31
0
0
LINE
5
132
100
AcDbEntity
8
0
100
AcDbLine
10
56.963465233971171
20
8.5000000022269386
30
0
11
56.963465233971171
21
7.7500000022269395
31
0
0
LINE
5
133
100
AcDbEntity
8
0
100
AcDbLine
10
54.088465233970609
20
2.50000000222694
30
0
11
56.213465233970602
21
2.50000000222694
31
0
0
LINE
5
134
100
AcDbEntity
8
0
100
AcDbLine
10
56.213465233970602
20
2.50000000222694
30
0
11
58.463465233970545
21
7.5000000022269395
31
0
0
LINE
5
135
100
AcDbEntity
8
0
100
AcDbLine
10
54.088465233970609
20
2.50000000222694
30
0
11
51.838465233970595
21
7.5000000022269395
31
0
0
LINE
5
136
100
AcDbEntity
8
0
100
AcDbLine
10
53.338465233971377
20
7.7500000022269395
30
0
11
56.963465233971171
21
7.7500000022269395
31
0
0
LINE
5
137
100
AcDbEntity
8
0
100
AcDbLine
10
102.514475233971
20
8.5000000022269386
30
0
11
102.51447523397125
21
7.5000000022269395
31
0
0
LINE
5
138
100
AcDbEntity
8
0
100
AcDbLine
10
109.13947523397123
20
8.5000000022269386
30
0
11
109.1394752339712
21
7.5000000022269395
31
0
0
LINE
5
139
100
AcDbEntity
8
0
100
AcDbLine
10
102.514475233971
20
8.5000000022269386
30
0
11
104.01447523397123
21
8.5000000022269386
31
0
0
LINE
5
140
100
AcDbEntity
8
0
100
AcDbLine
10
109.13947523397123
20
8.5000000022269386
30
0
11
107.6394752339712
21
8.5000000022269386
31
0
0
LINE
5
141
100
AcDbEntity
8
0
100
AcDbLine
10
107.6394752339712
20
8.5000000022269386
30
0
11
107.6394752339712
21
7.7500000022269395
31
0
0
LINE
5
142
100
AcDbEntity
8
0
100
AcDbLine
10
104.01447523397123
20
8.5000000022269386
30
0
11
104.01447523397118
21
7.7500000022269395
31
0
0
LINE
5
143
100
AcDbEntity
8
0
100
AcDbLine
10
107.6394752339712
20
7.7500000022269395
30
0
11
104.01447523397118
21
7.7500000022269395
31
0
0
LINE
5
144
100
AcDbEntity
8
0
100
AcDbLine
10
104.76447523397113
20
2.50000000222694
30
0
11
106.88947523397121
21
2.50000000222694
31
0
0
LINE
5
145
100
AcDbEntity
8
0
100
AcDbLine
10
106.88947523397121
20
2.50000000222694
30
0
11
109.1394752339712
21
7.5000000022269395
31
0
0
LINE
5
146
100
AcDbEntity
8
0
100
AcDbLine
10
104.76447523397113
20
2.50000000222694
30
0
11
102.51447523397125
21
7.5000000022269395
31
0
0
LINE
5
147
100
AcDbEntity
8
0
100
AcDbLine
10
-37.011029766028436
20
32.361348715498117
30
0
11
0.36397023397122846
21
1.0000000002471885
31
0
0
LINE
5
148
100
AcDbEntity
8
0
100
AcDbLine
10
0.36397023397122846
20
1.0000000002471885
30
0
11
160.61397023397123
21
1.0000000002471932
31
0
0
LINE
5
149
100
AcDbEntity
8
0
100
AcDbLine
10
160.61397023397123
20
1.0000000002471932
30
0
11
197.98897023397123
21
32.361348715497726
31
0
0
LINE
5
150
100
AcDbEntity
8
0
100
AcDbLine
10
-37.653817375715612
20
31.595304272378833
30
0
11
-31.868728888536712
21
38.489704260449656
31
0
0
LINE
5
151
100
AcDbEntity
8
0
100
AcDbLine
10
192.8466693564784
20
38.489704260449336
30
0
11
198.63175784365765
21
31.595304272378833
31
0
0
LWPOLYLINE
5
152
100
AcDbEntity
8
0
100
AcDbPolyline
90
10
70
1
43
0.0
10
160.93417281959756
20
3.2267928037311511
10
158.93732600012348
20
2.4999999999994156
10
153.19034774174156
20
7.3254265009347694
10
153.19034774218676
20
8.3896042734106455
10
155.01772549619531
20
8.3896042726463094
10
155.62662533603634
20
7.8130923603544424
10
160.05512673207861
20
9.4249350488220127
10
160.1509963574438
20
10.257962068135036
10
161.55084893187268
20
11.432577846042971
10
162.23488921818301
20
10.617370376660885
0
ENDSEC
0
SECTION
2
OBJECTS
0
DICTIONARY
5
C
100
AcDbDictionary
3
ACAD_GROUP
350
D
3
ACAD_MLINESTYLE
350
17
0
DICTIONARY
5
D
100
AcDbDictionary
0
DICTIONARY
5
1A
330
C
100
AcDbDictionary
0
DICTIONARY
5
17
100
AcDbDictionary
0
ENDSEC
0
EOF
