0
SECTION
2
HEADER
9
$INSUNITS
70
1
9
$ACADVER
1
AC1014
9
$HANDSEED
5
FFFF
0
ENDSEC
0
SECTION
2
TABLES
0
TABLE
2
VPORT
5
8
100
AcDbSymbolTable
0
ENDTAB
0
TABLE
2
LTYPE
5
5
100
AcDbSymbolTable
0
LTYPE
5
14
100
AcDbSymbolTableRecord
100
AcDbLinetypeTableRecord
2
BYBLOCK
70
0
0
LTYPE
5
15
100
AcDbSymbolTableRecord
100
AcDbLinetypeTableRecord
2
BYLAYER
70
0
0
ENDTAB
0
TABLE
2
LAYER
5
2
100
AcDbSymbolTable
70
2
0
LAYER
5
50
100
AcDbSymbolTableRecord
100
AcDbLayerTableRecord
2
0
70
0
6
CONTINUOUS
0
ENDTAB
0
TABLE
2
STYLE
5
3
100
AcDbSymbolTable
70
1
0
STYLE
5
11
100
AcDbSymbolTableRecord
100
AcDbTextStyleTableRecord
2
STANDARD
70
0
0
ENDTAB
0
TABLE
2
VIEW
5
6
100
AcDbSymbolTable
70
0
0
ENDTAB
0
TABLE
2
UCS
5
7
100
AcDbSymbolTable
70
0
0
ENDTAB
0
TABLE
2
APPID
5
9
100
AcDbSymbolTable
70
2
0
APPID
5
12
100
AcDbSymbolTableRecord
100
AcDbRegAppTableRecord
2
ACAD
70
0
0
ENDTAB
0
TABLE
2
DIMSTYLE
5
A
100
AcDbSymbolTable
70
1
0
ENDTAB
0
TABLE
2
BLOCK_RECORD
5
1
100
AcDbSymbolTable
70
1
0
BLOCK_RECORD
5
1F
100
AcDbSymbolTableRecord
100
AcDbBlockTableRecord
2
*MODEL_SPACE
0
BLOCK_RECORD
5
1B
100
AcDbSymbolTableRecord
100
AcDbBlockTableRecord
2
*PAPER_SPACE
0
ENDTAB
0
ENDSEC
0
SECTION
2
BLOCKS
0
BLOCK
5
20
100
AcDbEntity
100
AcDbBlockBegin
2
*MODEL_SPACE
0
ENDBLK
5
21
100
AcDbEntity
100
AcDbBlockEnd
0
BLOCK
5
1C
100
AcDbEntity
100
AcDbBlockBegin
2
*PAPER_SPACE
0
ENDBLK
5
1D
100
AcDbEntity
100
AcDbBlockEnd
0
ENDSEC
0
SECTION
2
ENTITIES
0
LWPOLYLINE
5
100
100
AcDbEntity
8
0
100
AcDbPolyline
90
6
70
1
43
0.0
10
160.24999999999994
20
0
10
197.62499999999991
20
30.265678240663515
10
-37.375
20
30.265678240663515
10
0
20
0
10
3.1870671527762737
20
8.9999999999999982
10
157.06293284722358
20
8.9999999999999787
0
LWPOLYLINE
5
101
100
AcDbEntity
8
0
100
AcDbPolyline
90
6
70
1
43
0.0
10
152.51279232773399
20
7.4321809366346416
10
152.5324760276423
20
8.5000000000005382
10
160.89841926095423
20
11.462535875862345
10
161.58571667954337
20
10.64507195680164
10
160.22055567294686
20
3.2661265433107718
10
158.2174425047811
20
2.5567869662947516
0
LWPOLYLINE
5
102
100
AcDbEntity
8
0
100
AcDbPolyline
90
10
70
1
43
0.0
10
-0.64841926108497672
20
11.462535875701304
10
-1.3357166794186091
20
10.645071956978724
10
0.029444325832602359
20
3.2661265430843778
10
2.0325574952188665
20
2.5567869662941702
10
7.7372076722658534
20
7.4321809366340998
10
7.7175239723575402
20
8.4999999999999982
10
5.859272075923136
20
8.4950110717135772
10
5.2554263707750053
20
7.9132075266083373
10
0.8957094741663898
20
9.4570642499743656
10
0.79257406130302044
20
10.289222940096057
0
LINE
5
103
100
AcDbEntity
8
0
100
AcDbLine
10
157.06293284722358
20
8.9999999999999787
30
0
11
191.9611164805514
21
37.259991893776238
31
0
0
LINE
5
104
100
AcDbEntity
8
0
100
AcDbLine
10
0.79257406130302044
20
10.289222940096057
30
0
11
5.859272075923136
21
8.4950110717135772
31
0
0
LINE
5
105
100
AcDbEntity
8
0
100
AcDbLine
10
3.2007454964236222
20
9.038626446806413
30
0
11
3.5345523556536418
21
9.9812679378996787
31
0
0
LINE
5
106
100
AcDbEntity
8
0
100
AcDbLine
10
159.21899908987743
20
2.9114567551616823
30
0
11
157.17443207578899
21
8.6851358876474425
31
0
0
LINE
5
107
100
AcDbEntity
8
0
100
AcDbLine
10
3.0755679242108909
20
8.6851358876468669
30
0
11
3.2007454964236222
21
9.038626446806413
31
0
0
LINE
5
108
100
AcDbEntity
8
0
100
AcDbLine
10
1.0310009101225024
20
2.9114567551610917
30
0
11
3.0755679242108909
21
8.6851358876468669
31
0
0
LINE
5
109
100
AcDbEntity
8
0
100
AcDbLine
10
3.0100078665109264
20
8.4999999999999982
30
0
11
-6.3157436709727079
21
16.05184469259807
31
0
0
LINE
5
110
100
AcDbEntity
8
0
100
AcDbLine
10
-1.335716679543522
20
10.645071956801031
30
0
11
7.7372076722658534
21
7.4321809366340998
31
0
0
LINE
5
111
100
AcDbEntity
8
0
100
AcDbLine
10
0
20
0
30
0
11
160.24999999999994
21
0
31
0
0
LINE
5
112
100
AcDbEntity
8
0
100
AcDbLine
10
3.1870671527762737
20
8.9999999999999982
30
0
11
-31.711116480551443
21
37.259991893776231
31
0
0
LINE
5
113
100
AcDbEntity
8
0
100
AcDbLine
10
3.0100078665109264
20
8.4999999999999982
30
0
11
15.010007866510927
21
8.4999999999999982
31
0
0
LWPOLYLINE
5
114
100
AcDbEntity
8
0
100
AcDbPolyline
90
7
70
1
43
0.0
10
192.03412210321591
20
27.025034154199052
10
194.36555998758681
20
28.912995327348597
10
192.16293861891231
20
31.633006192447965
10
190.9972196767269
20
30.689025605873194
10
187.50850566070631
20
33.010958962888758
10
185.7599272474281
20
31.594988083026607
10
186.38924763847803
20
30.817842121569644
0
LINE
5
115
100
AcDbEntity
8
0
100
AcDbLine
10
80.124999999999915
20
8.9999999999999893
30
0
11
80.124999999999972
21
0
31
0
0
LWPOLYLINE
5
116
100
AcDbEntity
8
0
100
AcDbPolyline
90
4
70
1
43
0.0
10
159.35429052561329
20
9.4570642505968809
10
159.45742593869684
20
10.289222940096648
10
154.39072792407671
20
8.4950110717141314
10
154.99457362922485
20
7.913207526608895
0
LINE
5
117
100
AcDbEntity
8
0
100
AcDbLine
10
-0.64841926108497672
20
11.462535875701304
30
0
11
7.7175239723575402
21
8.4999999999999982
31
0
0
LINE
5
118
100
AcDbEntity
8
0
100
AcDbLine
10
152.5324760276423
20
8.5000000000005382
30
0
11
154.39072792407671
21
8.4950110717141314
31
0
0
LINE
5
119
100
AcDbEntity
8
0
100
AcDbLine
10
-29.395657054713247
20
34.741590038275028
30
0
11
-34.744880378636893
21
28.135849365890767
31
0
0
LWPOLYLINE
5
120
100
AcDbEntity
8
0
100
AcDbPolyline
90
7
70
1
43
0.0
10
-25.509927247428408
20
31.594988083025818
10
-26.13924763847826
20
30.817842121568848
10
-31.784122103216149
20
27.025034154198224
10
-34.115559987587069
20
28.912995327347737
10
-31.912938618912609
20
31.633006192447123
10
-30.74721967672717
20
30.689025605872366
10
-27.2585056607066
20
33.010958962887955
0
LINE
5
121
100
AcDbEntity
8
0
100
AcDbLine
10
-0.64841926108497672
20
11.462535875701304
30
0
11
-0.3265962852804733
21
11.845308550159453
31
0
0
LINE
5
122
100
AcDbEntity
8
0
100
AcDbLine
10
159.45742593869684
20
10.289222940096648
30
0
11
160.89841926095423
21
11.462535875862345
31
0
0
LINE
5
123
100
AcDbEntity
8
0
100
AcDbLine
10
-29.080996859188325
20
35.130163019003511
30
0
11
-29.395657054713247
21
34.741590038275028
31
0
0
LINE
5
124
100
AcDbEntity
8
0
100
AcDbLine
10
-26.749558974817422
20
33.242201845853977
30
0
11
-27.064219170342351
21
32.853628865125515
31
0
0
LINE
5
125
100
AcDbEntity
8
0
100
AcDbLine
10
157.17443207578899
20
8.6851358876474425
30
0
11
157.04925450357621
21
9.0386264468069815
31
0
0
LINE
5
126
100
AcDbEntity
8
0
100
AcDbLine
10
42.624999999999943
20
8.5
30
0
11
117.62499999999994
21
8.5
31
0
0
LINE
5
127
100
AcDbEntity
8
0
100
AcDbLine
10
161.58571667954337
20
10.64507195680164
30
0
11
152.51279232773399
21
7.4321809366346416
31
0
0
LINE
5
128
100
AcDbEntity
8
0
100
AcDbLine
10
-25.195267051903496
20
31.983561063754301
30
0
11
-25.509927247428408
21
31.594988083025818
31
0
0
LINE
5
129
100
AcDbEntity
8
0
100
AcDbLine
10
189.33099685918847
20
35.130163019003618
30
0
11
194.99488037863713
21
28.135849365891019
31
0
0
LINE
5
130
100
AcDbEntity
8
0
100
AcDbLine
10
157.04925450357621
20
9.0386264468069815
30
0
11
156.71544764434623
21
9.9812679379002454
31
0
0
LINE
5
131
100
AcDbEntity
8
0
100
AcDbLine
10
-26.943845465181678
20
33.399531943616445
30
0
11
-27.2585056607066
21
33.010958962887955
31
0
0
LINE
5
132
100
AcDbEntity
8
0
100
AcDbLine
10
-27.064219170342351
20
32.853628865125515
30
0
11
-32.413442494265993
21
26.24788819274125
31
0
0
LINE
5
133
100
AcDbEntity
8
0
100
AcDbLine
10
-25.509927247428408
20
31.594988083025818
30
0
11
-30.859150571352053
21
24.989247410641571
31
0
0
ENDSEC
0
SECTION
2
OBJECTS
0
DICTIONARY
5
C
100
AcDbDictionary
3
ACAD_GROUP
350
D
3
ACAD_MLINESTYLE
350
17
0
DICTIONARY
5
D
100
AcDbDictionary
0
DICTIONARY
5
1A
330
C
100
AcDbDictionary
0
DICTIONARY
5
17
100
AcDbDictionary
0
ENDSEC
0
EOF
