0
SECTION
2
HEADER
9
$INSUNITS
70
1
9
$ACADVER
1
AC1014
9
$HANDSEED
5
FFFF
0
ENDSEC
0
SECTION
2
TABLES
0
TABLE
2
VPORT
5
8
100
AcDbSymbolTable
0
ENDTAB
0
TABLE
2
LTYPE
5
5
100
AcDbSymbolTable
0
LTYPE
5
14
100
AcDbSymbolTableRecord
100
AcDbLinetypeTableRecord
2
BYBLOCK
70
0
0
LTYPE
5
15
100
AcDbSymbolTableRecord
100
AcDbLinetypeTableRecord
2
BYLAYER
70
0
0
ENDTAB
0
TABLE
2
LAYER
5
2
100
AcDbSymbolTable
70
2
0
LAYER
5
50
100
AcDbSymbolTableRecord
100
AcDbLayerTableRecord
2
0
70
0
6
CONTINUOUS
0
ENDTAB
0
TABLE
2
STYLE
5
3
100
AcDbSymbolTable
70
1
0
STYLE
5
11
100
AcDbSymbolTableRecord
100
AcDbTextStyleTableRecord
2
STANDARD
70
0
0
ENDTAB
0
TABLE
2
VIEW
5
6
100
AcDbSymbolTable
70
0
0
ENDTAB
0
TABLE
2
UCS
5
7
100
AcDbSymbolTable
70
0
0
ENDTAB
0
TABLE
2
APPID
5
9
100
AcDbSymbolTable
70
2
0
APPID
5
12
100
AcDbSymbolTableRecord
100
AcDbRegAppTableRecord
2
ACAD
70
0
0
ENDTAB
0
TABLE
2
DIMSTYLE
5
A
100
AcDbSymbolTable
70
1
0
ENDTAB
0
TABLE
2
BLOCK_RECORD
5
1
100
AcDbSymbolTable
70
1
0
BLOCK_RECORD
5
1F
100
AcDbSymbolTableRecord
100
AcDbBlockTableRecord
2
*MODEL_SPACE
0
BLOCK_RECORD
5
1B
100
AcDbSymbolTableRecord
100
AcDbBlockTableRecord
2
*PAPER_SPACE
0
ENDTAB
0
ENDSEC
0
SECTION
2
BLOCKS
0
BLOCK
5
20
100
AcDbEntity
100
AcDbBlockBegin
2
*MODEL_SPACE
0
ENDBLK
5
21
100
AcDbEntity
100
AcDbBlockEnd
0
BLOCK
5
1C
100
AcDbEntity
100
AcDbBlockBegin
2
*PAPER_SPACE
0
ENDBLK
5
1D
100
AcDbEntity
100
AcDbBlockEnd
0
ENDSEC
0
SECTION
2
ENTITIES
0
LWPOLYLINE
5
100
100
AcDbEntity
8
0
100
AcDbPolyline
90
4
70
1
43
0.0
10
0
20
0
10
160.24999999999994
20
0
10
157.06293284722361
20
8.9999999999999805
10
3.1870671527762751
20
8.9999999999999982
0
LINE
5
101
100
AcDbEntity
8
0
100
AcDbLine
10
160.24999999999994
20
0
30
0
11
197.62499999999994
21
30.265678240663515
31
0
0
LINE
5
102
100
AcDbEntity
8
0
100
AcDbLine
10
0
20
0
30
0
11
-37.375
21
30.265678240663515
31
0
0
LINE
5
103
100
AcDbEntity
8
0
100
AcDbLine
10
-37.375
20
30.265678240663515
30
0
11
197.62499999999994
21
30.265678240663515
31
0
0
LINE
5
104
100
AcDbEntity
8
0
100
AcDbLine
10
157.06293284722361
20
8.9999999999999805
30
0
11
191.9611164805514
21
37.259991893776238
31
0
0
LINE
5
105
100
AcDbEntity
8
0
100
AcDbLine
10
3.1870671527762751
20
8.9999999999999982
30
0
11
-31.71111648055145
21
37.259991893776238
31
0
0
LINE
5
106
100
AcDbEntity
8
0
100
AcDbLine
10
3.0100078665109264
20
8.4999999999999982
30
0
11
15.010007866510927
21
8.4999999999999982
31
0
0
LINE
5
107
100
AcDbEntity
8
0
100
AcDbLine
10
3.0100078665109264
20
8.4999999999999982
30
0
11
-6.3157436709727079
21
16.051844692598067
31
0
0
LINE
5
108
100
AcDbEntity
8
0
100
AcDbLine
10
1.0310009101225024
20
2.9114567551610921
30
0
11
3.0755679242108909
21
8.6851358876468669
31
0
0
LWPOLYLINE
5
109
100
AcDbEntity
8
0
100
AcDbPolyline
90
10
70
1
43
0.0
10
0.029444325832602397
20
3.2661265430843778
10
2.0325574952188665
20
2.5567869662941702
10
7.7372076722658543
20
7.4321809366341016
10
7.7175239723575411
20
8.4999999999999982
10
5.859272075923136
20
8.4950110717135772
10
5.2554263707750062
20
7.913207526608339
10
0.89570947416638969
20
9.4570642499743656
10
0.79257406130302066
20
10.289222940096058
10
-0.64841926108497683
20
11.462535875701306
10
-1.3357166794186091
20
10.645071956978722
0
LINE
5
110
100
AcDbEntity
8
0
100
AcDbLine
10
3.0755679242108909
20
8.6851358876468669
30
0
11
3.2007454964236226
21
9.0386264468064113
31
0
0
LINE
5
111
100
AcDbEntity
8
0
100
AcDbLine
10
-1.3357166795435222
20
10.645071956801033
30
0
11
7.7372076722658543
21
7.4321809366341016
31
0
0
LINE
5
112
100
AcDbEntity
8
0
100
AcDbLine
10
3.2007454964236226
20
9.0386264468064113
30
0
11
3.5345523556536418
21
9.9812679378996769
31
0
0
LINE
5
113
100
AcDbEntity
8
0
100
AcDbLine
10
-0.64841926108497683
20
11.462535875701306
30
0
11
7.7175239723575411
21
8.4999999999999982
31
0
0
LINE
5
114
100
AcDbEntity
8
0
100
AcDbLine
10
0.79257406130302066
20
10.289222940096058
30
0
11
5.859272075923136
21
8.4950110717135772
31
0
0
LINE
5
115
100
AcDbEntity
8
0
100
AcDbLine
10
80.124999999999943
20
8.9999999999999893
30
0
11
80.124999999999972
21
0
31
0
0
LINE
5
116
100
AcDbEntity
8
0
100
AcDbLine
10
159.21899908987743
20
2.9114567551616823
30
0
11
157.17443207578899
21
8.6851358876474425
31
0
0
LWPOLYLINE
5
117
100
AcDbEntity
8
0
100
AcDbPolyline
90
10
70
1
43
0.0
10
158.21744250478108
20
2.5567869662947516
10
152.51279232773405
20
7.4321809366346416
10
152.53247602764233
20
8.5000000000005382
10
154.39072792407674
20
8.4950110717141314
10
154.99457362922487
20
7.9132075266088968
10
159.35429052561327
20
9.4570642505968809
10
159.45742593869684
20
10.28922294009665
10
160.89841926095423
20
11.462535875862345
10
161.5857166795434
20
10.64507195680164
10
160.22055567294686
20
3.2661265433107722
0
LINE
5
118
100
AcDbEntity
8
0
100
AcDbLine
10
161.5857166795434
20
10.64507195680164
30
0
11
152.51279232773405
21
7.4321809366346416
31
0
0
LINE
5
119
100
AcDbEntity
8
0
100
AcDbLine
10
159.45742593869684
20
10.28922294009665
30
0
11
154.39072792407674
21
8.4950110717141314
31
0
0
LINE
5
120
100
AcDbEntity
8
0
100
AcDbLine
10
160.89841926095423
20
11.462535875862345
30
0
11
152.53247602764233
21
8.5000000000005382
31
0
0
LINE
5
121
100
AcDbEntity
8
0
100
AcDbLine
10
157.04925450357626
20
9.038626446806985
30
0
11
156.71544764434623
21
9.9812679379002471
31
0
0
LINE
5
122
100
AcDbEntity
8
0
100
AcDbLine
10
157.17443207578899
20
8.6851358876474425
30
0
11
157.04925450357626
21
9.038626446806985
31
0
0
LINE
5
123
100
AcDbEntity
8
0
100
AcDbLine
10
-0.64841926108497683
20
11.462535875701306
30
0
11
-0.32659628528047335
21
11.845308550159455
31
0
0
LINE
5
124
100
AcDbEntity
8
0
100
AcDbLine
10
-25.195267051903496
20
31.983561063754301
30
0
11
-25.509927247428418
21
31.594988083025818
31
0
0
LINE
5
125
100
AcDbEntity
8
0
100
AcDbLine
10
-25.509927247428418
20
31.594988083025818
30
0
11
-30.859150571352053
21
24.989247410641575
31
0
0
LINE
5
126
100
AcDbEntity
8
0
100
AcDbLine
10
-26.749558974817425
20
33.242201845853991
30
0
11
-27.064219170342351
21
32.853628865125508
31
0
0
LINE
5
127
100
AcDbEntity
8
0
100
AcDbLine
10
-27.064219170342351
20
32.853628865125508
30
0
11
-32.413442494265993
21
26.247888192741254
31
0
0
LINE
5
128
100
AcDbEntity
8
0
100
AcDbLine
10
-29.080996859188328
20
35.130163019003518
30
0
11
-29.395657054713251
21
34.741590038275035
31
0
0
LINE
5
129
100
AcDbEntity
8
0
100
AcDbLine
10
-29.395657054713251
20
34.741590038275035
30
0
11
-34.7448803786369
21
28.135849365890774
31
0
0
LWPOLYLINE
5
130
100
AcDbEntity
8
0
100
AcDbPolyline
90
7
70
1
43
0.0
10
-25.509927247428418
20
31.594988083025818
10
-26.13924763847826
20
30.817842121568848
10
-31.784122103216152
20
27.025034154198224
10
-34.115559987587062
20
28.91299532734774
10
-31.912938618912619
20
31.633006192447134
10
-30.74721967672717
20
30.68902560587237
10
-27.2585056607066
20
33.010958962887955
0
LINE
5
131
100
AcDbEntity
8
0
100
AcDbLine
10
-26.943845465181678
20
33.399531943616438
30
0
11
-27.2585056607066
21
33.010958962887955
31
0
0
LWPOLYLINE
5
132
100
AcDbEntity
8
0
100
AcDbPolyline
90
7
70
1
43
0.0
10
192.16293861891231
20
31.633006192447972
10
190.9972196767269
20
30.689025605873198
10
187.50850566070631
20
33.010958962888758
10
185.75992724742812
20
31.594988083026607
10
186.38924763847797
20
30.817842121569644
10
192.03412210321591
20
27.025034154199055
10
194.36555998758681
20
28.912995327348597
0
LINE
5
133
100
AcDbEntity
8
0
100
AcDbLine
10
189.33099685918847
20
35.130163019003625
30
0
11
194.99488037863713
21
28.135849365891016
31
0
0
LINE
5
134
100
AcDbEntity
8
0
100
AcDbLine
10
42.62499999999995
20
8.5
30
0
11
117.62499999999994
21
8.5
31
0
0
LINE
5
135
100
AcDbEntity
8
0
100
AcDbLine
10
53.416666666666664
20
0
30
0
11
53.416666666666664
21
8.5
31
0
0
LINE
5
136
100
AcDbEntity
8
0
100
AcDbLine
10
106.83333333333333
20
0
30
0
11
106.83333333333333
21
8.5
31
0
0
LINE
5
137
100
AcDbEntity
8
0
100
AcDbLine
10
50.104166666666664
20
8.5
30
0
11
51.604166666666657
21
8.5
31
0
0
LINE
5
138
100
AcDbEntity
8
0
100
AcDbLine
10
51.604166666666657
20
8.5
30
0
11
51.604166666666657
21
7.7499999999999991
31
0
0
LINE
5
139
100
AcDbEntity
8
0
100
AcDbLine
10
50.104166666666664
20
8.5
30
0
11
50.104166666666664
21
7.5
31
0
0
LINE
5
140
100
AcDbEntity
8
0
100
AcDbLine
10
56.729166666666664
20
8.5
30
0
11
56.729166666666664
21
7.5
31
0
0
LINE
5
141
100
AcDbEntity
8
0
100
AcDbLine
10
56.729166666666664
20
8.5
30
0
11
55.229166666666664
21
8.5
31
0
0
LINE
5
142
100
AcDbEntity
8
0
100
AcDbLine
10
55.229166666666664
20
8.5
30
0
11
55.229166666666664
21
7.7499999999999991
31
0
0
LINE
5
143
100
AcDbEntity
8
0
100
AcDbLine
10
52.354166666666657
20
2.4999999999999996
30
0
11
54.479166666666671
21
2.4999999999999996
31
0
0
LINE
5
144
100
AcDbEntity
8
0
100
AcDbLine
10
54.479166666666671
20
2.4999999999999996
30
0
11
56.729166666666664
21
7.5
31
0
0
LINE
5
145
100
AcDbEntity
8
0
100
AcDbLine
10
52.354166666666657
20
2.4999999999999996
30
0
11
50.104166666666664
21
7.5
31
0
0
LINE
5
146
100
AcDbEntity
8
0
100
AcDbLine
10
51.604166666666657
20
7.7499999999999991
30
0
11
55.229166666666664
21
7.7499999999999991
31
0
0
LINE
5
147
100
AcDbEntity
8
0
100
AcDbLine
10
103.52083333333333
20
8.5
30
0
11
103.52083333333333
21
7.5
31
0
0
LINE
5
148
100
AcDbEntity
8
0
100
AcDbLine
10
110.14583333333333
20
8.5
30
0
11
110.14583333333333
21
7.5
31
0
0
LINE
5
149
100
AcDbEntity
8
0
100
AcDbLine
10
103.52083333333333
20
8.5
30
0
11
105.02083333333333
21
8.5
31
0
0
LINE
5
150
100
AcDbEntity
8
0
100
AcDbLine
10
110.14583333333333
20
8.5
30
0
11
108.64583333333333
21
8.5
31
0
0
LINE
5
151
100
AcDbEntity
8
0
100
AcDbLine
10
108.64583333333333
20
8.5
30
0
11
108.64583333333333
21
7.7499999999999991
31
0
0
LINE
5
152
100
AcDbEntity
8
0
100
AcDbLine
10
105.02083333333333
20
8.5
30
0
11
105.02083333333333
21
7.7499999999999991
31
0
0
LINE
5
153
100
AcDbEntity
8
0
100
AcDbLine
10
108.64583333333333
20
7.7499999999999991
30
0
11
105.02083333333333
21
7.7499999999999991
31
0
0
LINE
5
154
100
AcDbEntity
8
0
100
AcDbLine
10
105.77083333333333
20
2.4999999999999996
30
0
11
107.89583333333334
21
2.4999999999999996
31
0
0
LINE
5
155
100
AcDbEntity
8
0
100
AcDbLine
10
107.89583333333334
20
2.4999999999999996
30
0
11
110.14583333333333
21
7.5
31
0
0
LINE
5
156
100
AcDbEntity
8
0
100
AcDbLine
10
105.77083333333333
20
2.4999999999999996
30
0
11
103.52083333333333
21
7.5
31
0
0
ENDSEC
0
SECTION
2
OBJECTS
0
DICTIONARY
5
C
100
AcDbDictionary
3
ACAD_GROUP
350
D
3
ACAD_MLINESTYLE
350
17
0
DICTIONARY
5
D
100
AcDbDictionary
0
DICTIONARY
5
1A
330
C
100
AcDbDictionary
0
DICTIONARY
5
17
100
AcDbDictionary
0
ENDSEC
0
EOF
